<svg id="auditor" xmlns="http://www.w3.org/2000/svg" width="89.237" height="89.281" viewBox="0 0 89.237 89.281">
  <path id="Path_11640" data-name="Path 11640" d="M68.449,14.88a20.684,20.684,0,0,0-8.928,2.037,25.469,25.469,0,0,0-5.907-9.425A25.031,25.031,0,0,0,35.712,0a25.445,25.445,0,0,0-25.3,25.542v4.21c0,3.64,0,6.044,1.556,9.189a6.4,6.4,0,0,0,4.086,3.411A19.743,19.743,0,0,0,25.3,57.964v1.67a8.11,8.11,0,0,0-5.28,2.835h-.673A19.377,19.377,0,0,0,0,81.841v4.464a2.976,2.976,0,0,0,2.976,2.976H68.449A5.952,5.952,0,0,0,74.4,83.329V62.5a2.966,2.966,0,0,0-1.488-2.562V56.051A20.832,20.832,0,0,0,68.449,14.88ZM35.712,2.976A22.075,22.075,0,0,1,51.5,9.586,22.457,22.457,0,0,1,56.881,18.4a20.935,20.935,0,0,0-3.21,2.649,15.276,15.276,0,0,0-9.358-7.507,4.275,4.275,0,0,0-3.479.527c-5.208,3.494-15.23,5.458-20.372,5.684a4.315,4.315,0,0,0-4.094,4.332v1.711c-.091-.039-.183-.076-.28-.11a4.3,4.3,0,0,0-2.7-.036v-.107A22.469,22.469,0,0,1,35.713,2.976ZM19.027,42.151a2.946,2.946,0,0,0-2.113-2.638,3.5,3.5,0,0,1-2.277-1.9c-1.245-2.515-1.245-4.3-1.245-7.863a1.321,1.321,0,0,1,.531-1.119,1.265,1.265,0,0,1,1.171-.149c1.042.372,1.274,2.242,1.274,2.867a1.488,1.488,0,1,0,2.976,0h0V24.084A1.339,1.339,0,0,1,20.6,22.728C26.234,22.48,36.75,20.4,42.483,16.55a1.33,1.33,0,0,1,1.083-.125A11.812,11.812,0,0,1,51.5,23.642a20.736,20.736,0,0,0-.3,23.753A16.719,16.719,0,0,1,35.712,58.012,16.527,16.527,0,0,1,23.9,53.072a17.023,17.023,0,0,1-4.873-10.921ZM35.712,68.422a6.581,6.581,0,0,1,4.659,2.156l-2.3,2.3H33.352l-2.3-2.3A6.727,6.727,0,0,1,35.712,68.422Zm9.8-5.87a5.277,5.277,0,0,1,3.571,1.786c-.22,3.217-3.248,5.416-5.092,6.465-.091-.2-.207-.372-.308-.559a1.327,1.327,0,0,0-.1-.174,8.825,8.825,0,0,0-3.039-3.177,11.66,11.66,0,0,0,4.969-4.341ZM41.775,73.385a1.473,1.473,0,0,0,.7.823,1.507,1.507,0,0,0,.677.162,1.475,1.475,0,0,0,.552-.106,17.885,17.885,0,0,0,4.785-3.042c-.793,5.155-2.5,11.1-5.852,14.053L40.325,74.847Zm-14.059.879a1.475,1.475,0,0,0,.552.106,1.507,1.507,0,0,0,.677-.162,1.473,1.473,0,0,0,.7-.823l1.46,1.46L28.72,85.533c-3.422-2.478-5.126-8.861-5.879-14.385a17.847,17.847,0,0,0,4.879,3.116Zm6.211,1.594H37.5l2.318,10.447H31.609ZM52.039,65.442h.042A16.335,16.335,0,0,1,62.5,69.2V83.329a5.891,5.891,0,0,0,.827,2.976H45.831c5.1-5.89,6.041-16.859,6.211-20.861Zm11.946-5.507A2.966,2.966,0,0,0,62.5,62.5v3.033a19.319,19.319,0,0,0-10.416-3.061h-.673a8.11,8.11,0,0,0-5.279-2.835V57.963a19.809,19.809,0,0,0,7.186-7.979,20.8,20.8,0,0,0,10.671,6.067ZM35.712,60.988a19.471,19.471,0,0,0,7.444-1.478l0,1.173c-.362.759-2.045,3.555-7.44,4.723-5.421-1.174-7.093-3.988-7.44-4.719V59.521A19.508,19.508,0,0,0,35.712,60.988Zm-9.8,1.564a11.66,11.66,0,0,0,4.958,4.335,8.825,8.825,0,0,0-3.043,3.177,1.327,1.327,0,0,0-.1.174c-.1.187-.217.357-.308.559-1.844-1.049-4.872-3.248-5.092-6.465a5.279,5.279,0,0,1,3.582-1.78ZM2.976,81.841a16.4,16.4,0,0,1,16.367-16.4h.036C19.535,69.5,20.4,80.694,25.215,86.3H2.976Zm68.449,1.488a2.976,2.976,0,0,1-5.952,0V62.5h5.952ZM69.937,59.521H66.961V56.469c.494.036.985.076,1.488.076s.994-.04,1.488-.076Zm-1.488-5.952A17.856,17.856,0,1,1,86.305,35.713,17.856,17.856,0,0,1,68.449,53.569Z" transform="translate(0 0)" fill="#465886"/>
  <path id="Path_11641" data-name="Path 11641" d="M50.879,14a1.488,1.488,0,1,0,0,2.976,11.916,11.916,0,1,1-6.611,2.01,1.489,1.489,0,0,0-1.658-2.473A14.88,14.88,0,1,0,50.879,14Z" transform="translate(17.57 6.832)" fill="#465886"/>
</svg>
