<svg xmlns="http://www.w3.org/2000/svg" width="142.141" height="27.199" viewBox="0 0 142.141 27.199">
  <g id="Group_59241" data-name="Group 59241" transform="translate(-183.835 -33.757)">
    <g id="Group_18976" data-name="Group 18976" transform="translate(183.834 32.25)">
      <g id="Group_18977" data-name="Group 18977" transform="translate(0 0)">
        <path id="Path_5005" data-name="Path 5005" d="M18.488,19.382l-1.98-1.917c-.151.037-.254.033-.316.082-2.631,2.062-3.022,2.041-5.369-.307-1.214-1.215-2.454-2.407-3.627-3.66a2.426,2.426,0,1,1,3.42-3.44C14.91,14.376,19.17,18.645,23.438,22.9c-4.43,5.175-12.871,5.735-18.365,1.286A13.633,13.633,0,0,1,2.855,5.228,13.778,13.778,0,0,1,21.465,2.44c6.932,5,6.815,13.725,3.667,18.174-1.232-1.321-2.4-2.628-3.627-3.878q-4.212-4.293-8.47-8.54a5.609,5.609,0,0,0-7.944-.355,5.491,5.491,0,0,0,.1,8.114c1.425,1.441,2.853,2.881,4.3,4.3,2.8,2.747,6.5,2.439,9-.873m-4-11.228a5.026,5.026,0,0,0,.4.492c.8.773,1.32,1.713,2.9,1.013,1.669-.737,3.4,1.2,2.857,2.9a6.178,6.178,0,0,1-.427.946l1.757,2.326a5.272,5.272,0,0,0,.269-7.739,5.275,5.275,0,0,0-7.763.063" transform="translate(27.183 1.507) rotate(90)" fill="#8ba9e0"/>
        <path id="Path_12067" data-name="Path 12067" d="M10.227-7.56A3.429,3.429,0,0,1,12.285-6.29a3.607,3.607,0,0,1,.777,2.279,3.621,3.621,0,0,1-1.292,2.93A5.448,5.448,0,0,1,8.169,0H1.3V-14.742H7.938a5.441,5.441,0,0,1,3.517,1.029,3.4,3.4,0,0,1,1.27,2.793,3.374,3.374,0,0,1-.682,2.163A3.53,3.53,0,0,1,10.227-7.56ZM4.893-8.778H7.245A2.082,2.082,0,0,0,8.6-9.167a1.4,1.4,0,0,0,.472-1.145A1.427,1.427,0,0,0,8.6-11.466a2.044,2.044,0,0,0-1.354-.4H4.893ZM7.539-2.9a2.129,2.129,0,0,0,1.4-.41,1.454,1.454,0,0,0,.494-1.187,1.519,1.519,0,0,0-.515-1.218A2.108,2.108,0,0,0,7.5-6.153h-2.6V-2.9Zm9.408-10.038a2.177,2.177,0,0,1-1.544-.557,1.8,1.8,0,0,1-.6-1.375,1.827,1.827,0,0,1,.6-1.4,2.177,2.177,0,0,1,1.544-.557,2.148,2.148,0,0,1,1.522.557,1.827,1.827,0,0,1,.6,1.4,1.8,1.8,0,0,1-.6,1.375A2.148,2.148,0,0,1,16.947-12.936Zm1.785,1.218V0H15.141V-11.718Zm9.135,8.673V0H26.04A4.472,4.472,0,0,1,23-.956,3.949,3.949,0,0,1,21.9-4.074V-8.736H20.475v-2.982H21.9v-2.856h3.591v2.856h2.352v2.982H25.494v4.7a.984.984,0,0,0,.252.756,1.23,1.23,0,0,0,.84.231Zm18.69-11.7V0H42.966V-8.841L39.669,0h-2.9L33.453-8.862V0H29.862V-14.742H34.1L38.241-4.536l4.1-10.206ZM48.426-5.88a7,7,0,0,1,.682-3.171,5.091,5.091,0,0,1,1.859-2.1,4.852,4.852,0,0,1,2.625-.735,4.509,4.509,0,0,1,2.174.5A3.713,3.713,0,0,1,57.2-10.059v-1.659H60.8V0H57.2V-1.659A3.878,3.878,0,0,1,55.745-.336a4.509,4.509,0,0,1-2.174.5,4.765,4.765,0,0,1-2.6-.746A5.152,5.152,0,0,1,49.109-2.7,7.07,7.07,0,0,1,48.426-5.88Zm8.778.021a2.936,2.936,0,0,0-.745-2.121,2.422,2.422,0,0,0-1.817-.777,2.438,2.438,0,0,0-1.817.767A2.9,2.9,0,0,0,52.08-5.88a2.974,2.974,0,0,0,.745,2.131,2.407,2.407,0,0,0,1.817.788,2.422,2.422,0,0,0,1.817-.777A2.936,2.936,0,0,0,57.2-5.859ZM66.99-9.765a4.737,4.737,0,0,1,1.575-1.523,4.061,4.061,0,0,1,2.1-.556v3.8h-.987a3.025,3.025,0,0,0-2.016.577,2.565,2.565,0,0,0-.672,2.027V0H63.4V-11.718H66.99ZM79.548,0l-3.57-4.914V0H72.387V-15.54h3.591v8.589l3.549-4.767h4.431l-4.872,5.88L84,0ZM96.411-6.048A9.167,9.167,0,0,1,96.348-5H88.221a2.442,2.442,0,0,0,.7,1.67,2.149,2.149,0,0,0,1.522.577,1.887,1.887,0,0,0,1.869-1.134h3.822a5.245,5.245,0,0,1-1.061,2.079A5.31,5.31,0,0,1,93.156-.357a6.172,6.172,0,0,1-2.583.525,6.285,6.285,0,0,1-3.066-.735,5.228,5.228,0,0,1-2.1-2.1,6.483,6.483,0,0,1-.756-3.192A6.557,6.557,0,0,1,85.4-9.051a5.16,5.16,0,0,1,2.089-2.1,6.33,6.33,0,0,1,3.087-.735,6.266,6.266,0,0,1,3.024.714,5.127,5.127,0,0,1,2.068,2.037A6.183,6.183,0,0,1,96.411-6.048Zm-3.675-.945a1.846,1.846,0,0,0-.63-1.47,2.319,2.319,0,0,0-1.575-.546,2.274,2.274,0,0,0-1.522.525,2.332,2.332,0,0,0-.767,1.491Zm12.1,3.948V0H103A4.472,4.472,0,0,1,99.96-.956a3.949,3.949,0,0,1-1.092-3.119V-8.736H97.44v-2.982h1.428v-2.856h3.591v2.856h2.352v2.982h-2.352v4.7a.984.984,0,0,0,.252.756,1.23,1.23,0,0,0,.84.231Z" transform="translate(37.309 23.507)" fill="#8ba9e0" opacity="0.8"/>
      </g>
    </g>
  </g>
</svg>
