<svg xmlns="http://www.w3.org/2000/svg" width="143.309" height="29" viewBox="0 0 143.309 29">
  <g id="Group_59288" data-name="Group 59288" transform="translate(-465.001 -320)">
    <g id="Group_59241" data-name="Group 59241" transform="translate(281.166 286.243)">
      <g id="Group_18976" data-name="Group 18976" transform="translate(183.834 32.25)">
        <g id="Group_18977" data-name="Group 18977" transform="translate(0 0)">
          <path id="Path_5005" data-name="Path 5005" d="M18.488,19.382l-1.98-1.917c-.151.037-.254.033-.316.082-2.631,2.062-3.022,2.041-5.369-.307-1.214-1.215-2.454-2.407-3.627-3.66a2.426,2.426,0,1,1,3.42-3.44C14.91,14.376,19.17,18.645,23.438,22.9c-4.43,5.175-12.871,5.735-18.365,1.286A13.633,13.633,0,0,1,2.855,5.228,13.778,13.778,0,0,1,21.465,2.44c6.932,5,6.815,13.725,3.667,18.174-1.232-1.321-2.4-2.628-3.627-3.878q-4.212-4.293-8.47-8.54a5.609,5.609,0,0,0-7.944-.355,5.491,5.491,0,0,0,.1,8.114c1.425,1.441,2.853,2.881,4.3,4.3,2.8,2.747,6.5,2.439,9-.873m-4-11.228a5.026,5.026,0,0,0,.4.492c.8.773,1.32,1.713,2.9,1.013,1.669-.737,3.4,1.2,2.857,2.9a6.178,6.178,0,0,1-.427.946l1.757,2.326a5.272,5.272,0,0,0,.269-7.739,5.275,5.275,0,0,0-7.763.063" transform="translate(27.183 1.507) rotate(90)" fill="#8ba9e0"/>
          <text id="BitMarket" transform="translate(37.309 23.507)" fill="#8ba9e0" font-size="21" font-family="Poppins-Bold, Poppins" font-weight="700"><tspan x="0" y="0">BitMarket</tspan></text>
        </g>
      </g>
    </g>
  </g>
</svg>
