<svg xmlns="http://www.w3.org/2000/svg" width="167.05" height="27.505" viewBox="0 0 167.05 27.505">
  <g id="Group_59310" data-name="Group 59310" transform="translate(-876.475 -4073.495)">
    <g id="Group_59131" data-name="Group 59131" transform="translate(876.475 4073.495)">
      <path id="Path_11528" data-name="Path 11528" d="M14.461,0,11.046,10.507H0L8.937,17,5.524,27.5l8.937-6.494L23.4,27.5,19.983,17l8.937-6.492H17.874Z" transform="translate(0 0)" fill="#397bf3"/>
      <path id="Path_11529" data-name="Path 11529" d="M27.636,0,24.223,10.507H13.177L22.111,17,18.7,27.5l8.937-6.494L36.573,27.5,33.16,17,42.1,10.507H31.048Z" transform="translate(21.357 0)" fill="#397bf3"/>
      <path id="Path_11530" data-name="Path 11530" d="M54.694,0,51.282,10.507H40.235L49.172,17,45.76,27.5l8.934-6.494L63.631,27.5,60.219,17l8.937-6.492H58.109Z" transform="translate(65.213 0)" fill="#397bf3"/>
      <path id="Path_11531" data-name="Path 11531" d="M67.167,0,63.752,10.507H52.706L61.643,17,58.23,27.5l8.937-6.494L76.1,27.5,72.689,17l8.937-6.492H70.579Z" transform="translate(85.424 0)" fill="#397bf3"/>
      <path id="Path_11532" data-name="Path 11532" d="M41.049,0,37.637,10.507H26.588L35.525,17,32.112,27.5l8.937-6.494L49.986,27.5,46.574,17l8.937-6.492H44.461Z" transform="translate(43.093 0)" fill="#397bf3"/>
    </g>
  </g>
</svg>
