<svg xmlns="http://www.w3.org/2000/svg" width="16.971" height="16.971" viewBox="0 0 16.971 16.971">
  <g id="_8666713_arrow_up_right_icon" data-name="8666713_arrow_up_right_icon" transform="translate(16.971 8.485) rotate(135)">
    <path id="Line_1" data-name="Line 1" d="M1,0A1,1,0,0,0,.293,1.707l10,10a1,1,0,1,0,1.414-1.414l-10-10A1,1,0,0,0,1,0Z" transform="translate(0 0)" fill="#3b7bf8"/>
    <path id="Path_11301" data-name="Path 11301" d="M11,0a1,1,0,0,0-1,1v9H1a1,1,0,0,0,0,2H11a1,1,0,0,0,1-1V1A1,1,0,0,0,11,0Z" transform="translate(0 0)" fill="#3b7bf8"/>
  </g>
</svg>
