<svg xmlns="http://www.w3.org/2000/svg" width="15.72" height="20.339" viewBox="0 0 15.72 20.339">
  <g id="Group_59287" data-name="Group 59287" transform="translate(-15.218 -5)">
    <path id="Path_11601" data-name="Path 11601" d="M30.815,28.631c-.455-1.355-2.269-2.2-3.562-2.771-.507-.222-1.909-.6-2.078-1.236a1.32,1.32,0,0,1,0-.654,1.265,1.265,0,0,1-.239.024H24.09a1.219,1.219,0,1,1,0-2.438h.843a1.215,1.215,0,0,1,.755.262,5.423,5.423,0,0,0,.894-.2,7.559,7.559,0,0,0,.72-2.49c.275-3.4-1.81-5.39-4.8-5.046a4.006,4.006,0,0,0-3.612,3.957,7.186,7.186,0,0,0,1.484,4.849c.367.5.752.828.693,1.435-.069.718-.836.918-1.385,1.138A15.858,15.858,0,0,0,18,26.305c-1.14.629-2.39,1.387-2.672,2.424-.623,2.3,1.48,2.994,3.216,3.315a25.988,25.988,0,0,0,4.551.3c2.5,0,6.993-.1,7.718-1.979A3.129,3.129,0,0,0,30.815,28.631Z" transform="translate(0 -7.003)" fill="#fff"/>
    <path id="Path_11602" data-name="Path 11602" d="M28.373,15.428a.637.637,0,0,0-.533-.29H27a.635.635,0,1,0,0,1.27h.843a.63.63,0,0,0,.56-.343,5.7,5.7,0,0,0,2.914-.981,1.047,1.047,0,0,0,.57.168h.053A1.059,1.059,0,0,0,33,14.191V12.074a1.056,1.056,0,0,0-.6-.955,6.414,6.414,0,0,0-12.815,0,1.056,1.056,0,0,0-.6.955v2.117a1.059,1.059,0,0,0,1.059,1.061h.054a1.06,1.06,0,0,0,1.059-1.061V12.074a1.057,1.057,0,0,0-.589-.947,5.437,5.437,0,0,1,10.858,0,1.057,1.057,0,0,0-.589.947v2.117a1.065,1.065,0,0,0,.075.394A5.188,5.188,0,0,1,28.373,15.428Z" transform="translate(-2.906)" fill="#fff"/>
  </g>
</svg>
