<svg xmlns="http://www.w3.org/2000/svg" width="132.3" height="39" viewBox="0 0 132.3 39">
  <g id="Group_4" data-name="Group 4" transform="translate(-0.079 -0.2)">
    <g id="Group_3" data-name="Group 3" transform="translate(0 0)">
      <g id="Group_2" data-name="Group 2" transform="translate(0 0)">
        <path id="Path_12068" data-name="Path 12068" d="M13.425-13.25a1.391,1.391,0,0,1-.262.838,1.954,1.954,0,0,1-.613.562,8.43,8.43,0,0,0-1.45-.775,5.188,5.188,0,0,0-2.025-.35,4.842,4.842,0,0,0-2.462.613,4.1,4.1,0,0,0-1.65,1.825,6.753,6.753,0,0,0-.587,2.963A5.535,5.535,0,0,0,5.7-3.563,4.692,4.692,0,0,0,9.225-2.2a5.67,5.67,0,0,0,2.025-.325,7.172,7.172,0,0,0,1.475-.75,1.736,1.736,0,0,1,.563.588,1.618,1.618,0,0,1,.237.862,1.465,1.465,0,0,1-.212.775,1.818,1.818,0,0,1-.738.625,6.34,6.34,0,0,1-1.437.55A8.821,8.821,0,0,1,8.85.375,8.781,8.781,0,0,1,4.938-.488,6.459,6.459,0,0,1,2.15-3.113,8.776,8.776,0,0,1,1.125-7.575a8.681,8.681,0,0,1,1.025-4.4A6.821,6.821,0,0,1,4.9-14.663a7.948,7.948,0,0,1,3.775-.912,8.634,8.634,0,0,1,2.513.325,4.373,4.373,0,0,1,1.65.85A1.531,1.531,0,0,1,13.425-13.25Zm13.65,8.2H24V-7.3a2.282,2.282,0,0,0-.687-1.85,2.616,2.616,0,0,0-1.737-.575,3.72,3.72,0,0,0-1.562.325,5.745,5.745,0,0,0-1.238.75l-.175-2.5a8.858,8.858,0,0,1,1.475-.687,5.734,5.734,0,0,1,2.025-.337A5.338,5.338,0,0,1,25.713-11a4.434,4.434,0,0,1,1.362,3.55ZM16.15-6.6h3.075V-.05a3.247,3.247,0,0,1-.575.138,5.034,5.034,0,0,1-.825.063,2.086,2.086,0,0,1-1.263-.313,1.315,1.315,0,0,1-.413-1.113ZM24-6.575h3.075V-.05a3.249,3.249,0,0,1-.588.138,5.1,5.1,0,0,1-.812.063A2.078,2.078,0,0,1,24.4-.163,1.337,1.337,0,0,1,24-1.275Zm-4.775,1.55H16.15V-16.25q.2-.05.575-.125a4.214,4.214,0,0,1,.825-.075,2.078,2.078,0,0,1,1.275.313,1.337,1.337,0,0,1,.4,1.113Zm15.7,3.05a5.577,5.577,0,0,0,1.35-.15,3.127,3.127,0,0,0,.875-.325V-5.3l-2.475.25a3.23,3.23,0,0,0-1.562.438,1.2,1.2,0,0,0-.537,1.063A1.356,1.356,0,0,0,33.15-2.4,3,3,0,0,0,34.925-1.975Zm-.125-10.2a6.576,6.576,0,0,1,3.9,1.037,3.737,3.737,0,0,1,1.45,3.263v5.75a1.452,1.452,0,0,1-.288.95,2.9,2.9,0,0,1-.737.625A6.893,6.893,0,0,1,37.35.113a10.248,10.248,0,0,1-2.425.262A6.94,6.94,0,0,1,31-.588,3.228,3.228,0,0,1,29.575-3.45a3.15,3.15,0,0,1,1.063-2.562A5.6,5.6,0,0,1,33.725-7.1l3.4-.35V-7.9a1.6,1.6,0,0,0-.687-1.45A3.526,3.526,0,0,0,34.5-9.8a7.25,7.25,0,0,0-1.9.25,9.5,9.5,0,0,0-1.65.6,1.9,1.9,0,0,1-.45-.55,1.442,1.442,0,0,1-.2-.725,1.4,1.4,0,0,1,1-1.325,6.218,6.218,0,0,1,1.638-.475A11.773,11.773,0,0,1,34.8-12.175ZM43.325-6.6H46.4v2.95a1.348,1.348,0,0,0,.487,1.175,2.354,2.354,0,0,0,1.388.35,4.1,4.1,0,0,0,.862-.1,3.816,3.816,0,0,0,.788-.25A2.633,2.633,0,0,1,50.25-2a1.394,1.394,0,0,1,.15.675,1.414,1.414,0,0,1-.687,1.2A3.811,3.811,0,0,1,47.575.35a4.937,4.937,0,0,1-3.112-.888,3.439,3.439,0,0,1-1.138-2.888ZM45.2-9.15v-2.425h4.9a3.081,3.081,0,0,1,.212.5,2.049,2.049,0,0,1,.113.675,1.306,1.306,0,0,1-.3.938,1.026,1.026,0,0,1-.775.313Zm1.2,3.225H43.325v-9a3.881,3.881,0,0,1,.588-.15,4.269,4.269,0,0,1,.813-.075A2.078,2.078,0,0,1,46-14.838a1.337,1.337,0,0,1,.4,1.113Zm15.4-2.8v1.65H54.925v-1.65Zm-2.875,1.65.8-1.25a6.293,6.293,0,0,1,2.825.562,4,4,0,0,1,1.688,1.488A3.915,3.915,0,0,1,64.8-4.2,3.784,3.784,0,0,1,63.163-.825,8.329,8.329,0,0,1,58.5.275q-.675,0-1.35-.038T55.825.1q-.65-.1-1.25-.25-1.05-.3-1.05-1.15V-14.1a.874.874,0,0,1,.213-.625,1.23,1.23,0,0,1,.612-.325,9.442,9.442,0,0,1,1.813-.337q.962-.087,2.063-.087a8.11,8.11,0,0,1,4.4,1.012A3.418,3.418,0,0,1,64.2-11.375a3.807,3.807,0,0,1-.513,1.937,3.6,3.6,0,0,1-1.65,1.425A7.188,7.188,0,0,1,59-7.475l-.225-1.25a3.9,3.9,0,0,0,2.5-.687,2.323,2.323,0,0,0,.85-1.912,2.043,2.043,0,0,0-.987-1.863,5.594,5.594,0,0,0-2.913-.613q-.85,0-1.5.063t-1.2.163v11.9a12.846,12.846,0,0,0,1.388.2Q57.7-1.4,58.5-1.4a5.8,5.8,0,0,0,3.15-.7,2.387,2.387,0,0,0,1.075-2.15,2.493,2.493,0,0,0-.962-2.062A4.5,4.5,0,0,0,58.925-7.075ZM78.8-5.775a7.021,7.021,0,0,1-.7,3.225A5.075,5.075,0,0,1,76.125-.425a5.809,5.809,0,0,1-3,.75,5.877,5.877,0,0,1-3.013-.75A5.052,5.052,0,0,1,68.125-2.55a7.021,7.021,0,0,1-.7-3.225,6.9,6.9,0,0,1,.713-3.237,5.15,5.15,0,0,1,2-2.113,5.827,5.827,0,0,1,2.988-.75,5.759,5.759,0,0,1,2.975.75,5.175,5.175,0,0,1,1.988,2.113A6.9,6.9,0,0,1,78.8-5.775Zm-5.675-4.45a3.283,3.283,0,0,0-2.663,1.188,4.951,4.951,0,0,0-.987,3.263A5.03,5.03,0,0,0,70.438-2.5a3.281,3.281,0,0,0,2.688,1.175,3.239,3.239,0,0,0,2.662-1.187,5.04,5.04,0,0,0,.963-3.263,5.04,5.04,0,0,0-.963-3.263A3.239,3.239,0,0,0,73.125-10.225Zm8.8,3.625h2v3.45A1.621,1.621,0,0,0,84.5-1.738a2.657,2.657,0,0,0,1.575.413,3.491,3.491,0,0,0,.95-.15,3.976,3.976,0,0,0,.875-.35,1.68,1.68,0,0,1,.275.375,1.064,1.064,0,0,1,.125.525,1.03,1.03,0,0,1-.65.9,3.835,3.835,0,0,1-1.8.35A4.782,4.782,0,0,1,83.013-.45a2.943,2.943,0,0,1-1.088-2.575ZM82.95-9.65V-11.3h5.075a1.2,1.2,0,0,1,.15.325,1.492,1.492,0,0,1,.075.475.908.908,0,0,1-.2.625.7.7,0,0,1-.55.225Zm.975,3.8h-2V-14.9a3.008,3.008,0,0,1,.387-.113,2.424,2.424,0,0,1,.563-.062,1.233,1.233,0,0,1,.787.213.834.834,0,0,1,.263.687Z" transform="translate(44.079 27.2)" fill="#8ba9e0"/>
        <g id="Group_1" data-name="Group 1">
          <circle id="Ellipse_1" data-name="Ellipse 1" cx="19.5" cy="19.5" r="19.5" transform="translate(0.079 0.2)" fill="#8ba9e0"/>
          <g id="bot" transform="translate(9.2 9.2)">
            <path id="Path_1" data-name="Path 1" d="M76.913,4.36h-.544V3.171a1.632,1.632,0,1,0-1.088,0V4.36h-6.53V3.171a1.632,1.632,0,1,0-1.088,0V4.36h-.544A2.723,2.723,0,0,0,64.4,7.081v9.25a2.723,2.723,0,0,0,2.721,2.721h1.632v2.176a.544.544,0,0,0,.833.461L73.8,19.051h3.109a2.723,2.723,0,0,0,2.721-2.721V7.081A2.723,2.723,0,0,0,76.913,4.36ZM69.3,7.625a1.634,1.634,0,0,1,1.632,1.632.544.544,0,0,1-1.088,0,.544.544,0,1,0-1.088,0,.544.544,0,0,1-1.088,0A1.634,1.634,0,0,1,69.3,7.625Zm6.773,6.744a9.77,9.77,0,0,1-8.1,0,.544.544,0,1,1,.487-.973,8.724,8.724,0,0,0,7.131,0,.544.544,0,1,1,.487.973ZM75.825,9.8a.544.544,0,0,1-.544-.544.544.544,0,1,0-1.088,0,.544.544,0,0,1-1.088,0,1.632,1.632,0,0,1,3.265,0,.544.544,0,0,1-.544.544Zm0,0" transform="translate(-61.134)" fill="#fff"/>
            <path id="Path_2" data-name="Path 2" d="M384.943,170.8H384.4v5.441h.544a1.634,1.634,0,0,0,1.632-1.632v-2.177A1.634,1.634,0,0,0,384.943,170.8Zm0,0" transform="translate(-364.81 -162.088)" fill="#fff"/>
            <path id="Path_3" data-name="Path 3" d="M.4,172.433v2.177a1.634,1.634,0,0,0,1.632,1.632h.544V170.8H2.031A1.634,1.634,0,0,0,.4,172.433Zm0,0" transform="translate(-0.398 -162.088)" fill="#fff"/>
          </g>
        </g>
      </g>
    </g>
  </g>
</svg>
