<svg xmlns="http://www.w3.org/2000/svg" width="134" height="40" viewBox="0 0 134 40">
  <g id="Group_59289" data-name="Group 59289" transform="translate(-734.001 -314)">
    <g id="Group_59242" data-name="Group 59242" transform="translate(448.922 290.8)">
      <g id="Group_4" data-name="Group 4" transform="translate(285 23)">
        <g id="Group_3" data-name="Group 3" transform="translate(0 0)">
          <g id="Group_2" data-name="Group 2" transform="translate(0 0)">
            <text id="ChatBot" transform="translate(44.079 27.2)" fill="#8ba9e0" font-size="25" font-family="Baloo2-SemiBold, 'Baloo \32 '" font-weight="600"><tspan x="0" y="0">Chat</tspan><tspan y="0" font-family="Baloo2-Regular, 'Baloo \32 '" font-weight="400">Bot</tspan></text>
            <g id="Group_1" data-name="Group 1">
              <circle id="Ellipse_1" data-name="Ellipse 1" cx="19.5" cy="19.5" r="19.5" transform="translate(0.079 0.2)" fill="#8ba9e0"/>
              <g id="bot" transform="translate(9.2 9.2)">
                <path id="Path_1" data-name="Path 1" d="M76.913,4.36h-.544V3.171a1.632,1.632,0,1,0-1.088,0V4.36h-6.53V3.171a1.632,1.632,0,1,0-1.088,0V4.36h-.544A2.723,2.723,0,0,0,64.4,7.081v9.25a2.723,2.723,0,0,0,2.721,2.721h1.632v2.176a.544.544,0,0,0,.833.461L73.8,19.051h3.109a2.723,2.723,0,0,0,2.721-2.721V7.081A2.723,2.723,0,0,0,76.913,4.36ZM69.3,7.625a1.634,1.634,0,0,1,1.632,1.632.544.544,0,0,1-1.088,0,.544.544,0,1,0-1.088,0,.544.544,0,0,1-1.088,0A1.634,1.634,0,0,1,69.3,7.625Zm6.773,6.744a9.77,9.77,0,0,1-8.1,0,.544.544,0,1,1,.487-.973,8.724,8.724,0,0,0,7.131,0,.544.544,0,1,1,.487.973ZM75.825,9.8a.544.544,0,0,1-.544-.544.544.544,0,1,0-1.088,0,.544.544,0,0,1-1.088,0,1.632,1.632,0,0,1,3.265,0,.544.544,0,0,1-.544.544Zm0,0" transform="translate(-61.134)" fill="#fff"/>
                <path id="Path_2" data-name="Path 2" d="M384.943,170.8H384.4v5.441h.544a1.634,1.634,0,0,0,1.632-1.632v-2.177A1.634,1.634,0,0,0,384.943,170.8Zm0,0" transform="translate(-364.81 -162.088)" fill="#fff"/>
                <path id="Path_3" data-name="Path 3" d="M.4,172.433v2.177a1.634,1.634,0,0,0,1.632,1.632h.544V170.8H2.031A1.634,1.634,0,0,0,.4,172.433Zm0,0" transform="translate(-0.398 -162.088)" fill="#fff"/>
              </g>
            </g>
          </g>
        </g>
      </g>
    </g>
  </g>
</svg>
