<svg id="download" xmlns="http://www.w3.org/2000/svg" width="145.413" height="40.335" viewBox="0 0 145.413 40.335">
  <path id="Path_11533" data-name="Path 11533" d="M33.954,40.232h6.761V0H33.954Zm29.607-12.7c0,6.146-5.324,6.633-6.907,6.633-3.956,0-4.678-3.6-4.678-5.761V13.035h-6.62V28.368a12.3,12.3,0,0,0,3.392,9.042A11.249,11.249,0,0,0,56.6,40.274c2.194,0,5.3-.664,6.956-2.13v2.192h6.62v-27.3H63.56V27.529ZM83.381,3.387h-6.62v9.639H71.8v6.425h4.965V40.336h6.62V19.451h4.965V13.026H83.381Zm25.848,28.774a8.226,8.226,0,0,1-5.449,1.957,7.662,7.662,0,0,1-8.01-7.795c0-4.511,3.283-7.651,8.01-7.651a8.432,8.432,0,0,1,5.485,1.922l1.008.839,4.475-4.334-1.119-.979a14.914,14.914,0,0,0-9.849-3.6c-8.3,0-14.326,5.8-14.326,13.769,0,7.932,6.17,13.943,14.326,13.943A14.744,14.744,0,0,0,113.7,36.6l1.083-.976-4.544-4.334Zm29.111-16.8a10.549,10.549,0,0,0-13.594-.735V.1h-6.632V40.336h6.632V25.265c0-6.158,4.505-6.649,6.092-6.649,3.963,0,3.855,3.606,3.855,5.774V40.336h6.631V24.425c0-3.813-.822-6.963-2.984-9.061Z" transform="translate(4.089)" fill="#fff" fill-rule="evenodd"/>
  <path id="Path_11534" data-name="Path 11534" d="M96.569,19.42a4.672,4.672,0,1,1-4.793,4.67,4.732,4.732,0,0,1,4.793-4.67Z" transform="translate(11.053 2.339)" fill="#f33" fill-rule="evenodd"/>
  <path id="Path_11535" data-name="Path 11535" d="M28.573,30.146a13.392,13.392,0,0,1-9.535,3.889c-7.379,0-12.74-5.641-12.74-13.385,0-7.779,5.361-13.421,12.74-13.421a13.568,13.568,0,0,1,9.5,3.853l1.006.982L33.97,7.755,33,6.774A19.546,19.546,0,0,0,19.038,1.1C8.169,1.1,0,9.509,0,20.685,0,31.828,8.2,40.2,19.038,40.2a19.6,19.6,0,0,0,14-5.712l.97-.981-4.389-4.379-1.044,1.015Z" transform="translate(0 0.132)" fill="#fff" fill-rule="evenodd"/>
</svg>
