<svg id="Group_59095" data-name="Group 59095" xmlns="http://www.w3.org/2000/svg" width="93.356" height="88" viewBox="0 0 93.356 88">
  <g id="Group_59094" data-name="Group 59094">
    <path id="Path_11639" data-name="Path 11639" d="M70.639,32.942a7.876,7.876,0,0,0-.81-1.421h4.747a8.21,8.21,0,0,0,8.387-8,8.21,8.21,0,0,0-8.387-8h-14.6A7.7,7.7,0,0,0,61.447,11,8.21,8.21,0,0,0,53.06,3H8.387A8.21,8.21,0,0,0,0,11a8.21,8.21,0,0,0,8.387,8h14.6a7.676,7.676,0,0,0,0,9.043H18.234a8.21,8.21,0,0,0-8.387,8A7.859,7.859,0,0,0,13.022,42.3a7.76,7.76,0,0,0,0,12.522,7.76,7.76,0,0,0,0,12.522,7.859,7.859,0,0,0-3.175,6.261,8.21,8.21,0,0,0,8.387,8H39.722A31.625,31.625,0,0,0,62.359,91c17.092,0,31-13.263,31-29.565C93.356,47.867,83.724,36.406,70.639,32.942ZM74.576,19a4.527,4.527,0,1,1,0,9.043H29.9A4.527,4.527,0,1,1,29.9,19ZM8.387,15.522A4.64,4.64,0,0,1,3.647,11,4.64,4.64,0,0,1,8.387,6.478H53.06A4.64,4.64,0,0,1,57.8,11a4.64,4.64,0,0,1-4.741,4.522Zm9.846,16H62.906a4.928,4.928,0,0,1,2.069.454c-.862-.069-1.734-.106-2.615-.106a31.666,31.666,0,0,0-21.935,8.7H18.234a4.527,4.527,0,1,1,0-9.043Zm0,12.522H37.309a28.958,28.958,0,0,0-4.687,9.043H18.234a4.527,4.527,0,1,1,0-9.043Zm0,12.522H31.785a28.239,28.239,0,0,0-.113,9.043H18.234a4.527,4.527,0,1,1,0-9.043Zm0,21.565a4.527,4.527,0,1,1,0-9.043H32.417a28.839,28.839,0,0,0,4.375,9.043Zm44.126,9.391c-15.081,0-27.35-11.7-27.35-26.087s12.269-26.087,27.35-26.087,27.35,11.7,27.35,26.087S77.44,87.522,62.359,87.522Z" transform="translate(0 -3)" fill="#465886"/>
  </g>
</svg>
