<svg xmlns="http://www.w3.org/2000/svg" width="57.082" height="64.335" viewBox="0 0 57.082 64.335">
  <g id="customer-intelligence" transform="translate(-42.019 -13.75)">
    <circle id="Ellipse_1657" data-name="Ellipse 1657" cx="5.615" cy="5.615" r="5.615" transform="translate(64.945 38.092)" fill="none" stroke="#3a7cf8" stroke-width="2.5"/>
    <path id="Path_11712" data-name="Path 11712" d="M204.065,294.66V291.5a8.962,8.962,0,1,0-17.924,0v3.156" transform="translate(-124.543 -233.219)" fill="none" stroke="#3a7cf8" stroke-width="2.5"/>
    <line id="Line_66" data-name="Line 66" y1="7.697" transform="translate(70.56 22.697)" fill="none" stroke="#3a7cf8" stroke-width="2.5"/>
    <path id="Path_11713" data-name="Path 11713" d="M143.168,135H125.243l-8.962,15.523,8.962,15.523h17.924l8.962-15.523Z" transform="translate(-63.645 -104.605)" fill="none" stroke="#3a7cf8" stroke-width="2.5"/>
    <circle id="Ellipse_1658" data-name="Ellipse 1658" cx="3.849" cy="3.849" r="3.849" transform="translate(66.711 15)" fill="none" stroke="#3a7cf8" stroke-width="2.5"/>
    <line id="Line_67" data-name="Line 67" y2="7.697" transform="translate(70.56 61.441)" fill="none" stroke="#3a7cf8" stroke-width="2.5"/>
    <circle id="Ellipse_1659" data-name="Ellipse 1659" cx="3.849" cy="3.849" r="3.849" transform="translate(66.711 69.138)" fill="none" stroke="#3a7cf8" stroke-width="2.5"/>
    <line id="Line_68" data-name="Line 68" x1="6.666" y1="3.849" transform="translate(50.451 34.307)" fill="none" stroke="#3a7cf8" stroke-width="2.5"/>
    <circle id="Ellipse_1660" data-name="Ellipse 1660" cx="3.849" cy="3.849" r="3.849" transform="translate(43.269 28.534)" fill="none" stroke="#3a7cf8" stroke-width="2.5"/>
    <line id="Line_69" data-name="Line 69" x2="6.666" y2="3.849" transform="translate(84.003 53.679)" fill="none" stroke="#3a7cf8" stroke-width="2.5"/>
    <circle id="Ellipse_1661" data-name="Ellipse 1661" cx="3.849" cy="3.849" r="3.849" transform="translate(90.154 55.603)" fill="none" stroke="#3a7cf8" stroke-width="2.5"/>
    <line id="Line_70" data-name="Line 70" x1="6.666" y2="3.849" transform="translate(50.451 53.679)" fill="none" stroke="#3a7cf8" stroke-width="2.5"/>
    <circle id="Ellipse_1662" data-name="Ellipse 1662" cx="3.849" cy="3.849" r="3.849" transform="translate(43.269 55.603)" fill="none" stroke="#3a7cf8" stroke-width="2.5"/>
    <line id="Line_71" data-name="Line 71" y1="3.849" x2="6.666" transform="translate(84.003 34.307)" fill="none" stroke="#3a7cf8" stroke-width="2.5"/>
    <circle id="Ellipse_1663" data-name="Ellipse 1663" cx="3.849" cy="3.849" r="3.849" transform="translate(90.154 28.534)" fill="none" stroke="#3a7cf8" stroke-width="2.5"/>
  </g>
</svg>
