<svg xmlns="http://www.w3.org/2000/svg" width="98.521" height="27.738" viewBox="0 0 98.521 27.738">
  <g id="Group_59243" data-name="Group 59243" transform="translate(-212.417 -102.802)">
    <g id="Group_57104" data-name="Group 57104" transform="translate(212.417 102.802)">
      <g id="Group_21" data-name="Group 21" transform="translate(0 0)">
        <g id="Group_20" data-name="Group 20" transform="translate(0 0)">
          <g id="Group_19" data-name="Group 19" transform="translate(0 0)">
            <g id="Group_6" data-name="Group 6" transform="translate(0 0)">
              <g id="Group_16" data-name="Group 16" transform="translate(0)">
                <g id="Group_4" data-name="Group 4">
                  <g id="Group_17" data-name="Group 17">
                    <g id="Group_2" data-name="Group 2">
                      <g id="Group_18" data-name="Group 18">
                        <path id="Path_2" data-name="Path 2" d="M455.234,306.732v10.679a1.909,1.909,0,0,1-.212-.126c-1.3-1.072-2.627-2.122-3.905-3.223a10.7,10.7,0,0,1-3.685-6.632,10.33,10.33,0,0,1-.118-1.543c-.013-2.322-.006-4.643-.007-6.965,0-.051.005-.1.01-.189.131-.008.252-.021.374-.021h8.578q3.862,0,7.723,0a13.06,13.06,0,0,1,6.015,1.386,13.4,13.4,0,0,1,6.918,8.138,13.536,13.536,0,0,1,.615,4.05,15.4,15.4,0,0,1-.35,3.675,13.438,13.438,0,0,1-3.218,6.121,13.237,13.237,0,0,1-9.924,4.367q-3.513.005-7.027,0c-.093,0-.186-.01-.3-.016v-14.5a2.537,2.537,0,0,1,.217.142c1.272,1.045,2.548,2.084,3.811,3.139a10.493,10.493,0,0,1,2.465,2.984.44.44,0,0,0,.446.258,5.578,5.578,0,0,0,5.612-4.655,6.079,6.079,0,0,0-.586-4.118,5.385,5.385,0,0,0-4.893-2.957c-2.764-.038-5.528-.009-8.293-.008-.072,0-.143.009-.265.017" transform="translate(-447.305 -298.712)" fill="#8ba9e0"/>
                      </g>
                    </g>
                  </g>
                </g>
              </g>
            </g>
            <g id="Group_12" data-name="Group 12" transform="translate(0 0.481)">
              <g id="Group_13" data-name="Group 13" transform="translate(0 0)">
                <g id="Group_10" data-name="Group 10">
                  <g id="Group_14" data-name="Group 14">
                    <g id="Group_8" data-name="Group 8">
                      <g id="Group_15" data-name="Group 15">
                        <path id="Path_4" data-name="Path 4" d="M156.969,222.895l.118.028c-.019.008-.029.016-.038.016q-3.905.005-7.81.014c-.163,0-.2-.037-.2-.2q.007-7.038,0-14.076v-.355c.11.085.2.148.278.215,1.275,1.049,2.558,2.087,3.82,3.151a9.837,9.837,0,0,1,2.526,3.14,14.993,14.993,0,0,1,.839,2.1,9.929,9.929,0,0,1,.364,1.77,17.367,17.367,0,0,1,.1,1.824c.016.786,0,1.572,0,2.376" transform="translate(-139.649 -195.695)" fill="#8ba9e0"/>
                        <path id="Path_5" data-name="Path 5" d="M.788,7.176a11.979,11.979,0,0,0,7.886,7.611V25.419c-.221-.178-.417-.333-.61-.492-1.135-.933-2.278-1.856-3.4-2.8A10.87,10.87,0,0,1,1.9,18.594a10.138,10.138,0,0,1-.937-2.85A11.645,11.645,0,0,1,.8,13.969c-.019-2.22-.008-4.44-.007-6.66V7.176" transform="translate(-0.784 -7.176)" fill="#8ba9e0"/>
                      </g>
                    </g>
                  </g>
                </g>
              </g>
            </g>
          </g>
        </g>
      </g>
      <path id="Path_2450" data-name="Path 2450" d="M9.309-2.5a7.382,7.382,0,0,1-3.73-1,7.27,7.27,0,0,1-2.785-2.92,9.627,9.627,0,0,1-1.046-4.658v-.54a9.627,9.627,0,0,1,1.046-4.658,7.308,7.308,0,0,1,2.768-2.92,7.353,7.353,0,0,1,3.747-1,7.907,7.907,0,0,1,2.549.354,5.2,5.2,0,0,1,1.671.895,4.163,4.163,0,0,1,.979,1.148h.608V-26.6h4.253V-2.971H15.182V-5h-.608A5.533,5.533,0,0,1,12.8-3.275,6.457,6.457,0,0,1,9.309-2.5Zm1.283-3.713a4.539,4.539,0,0,0,3.274-1.266,4.893,4.893,0,0,0,1.316-3.7v-.338a4.93,4.93,0,0,0-1.3-3.7,4.524,4.524,0,0,0-3.291-1.266,4.539,4.539,0,0,0-3.274,1.266A4.893,4.893,0,0,0,6-11.512v.338a4.893,4.893,0,0,0,1.316,3.7A4.539,4.539,0,0,0,10.592-6.212ZM31.722-2.5a8.9,8.9,0,0,1-4.405-1.063,7.484,7.484,0,0,1-2.97-3,9.377,9.377,0,0,1-1.063-4.574v-.405a9.5,9.5,0,0,1,1.046-4.574,7.4,7.4,0,0,1,2.937-3,8.8,8.8,0,0,1,4.388-1.063,8.154,8.154,0,0,1,4.287,1.1,7.538,7.538,0,0,1,2.835,3.038,9.606,9.606,0,0,1,1.013,4.506v1.451H27.6a3.785,3.785,0,0,0,1.283,2.8,4.312,4.312,0,0,0,2.97,1.08,3.8,3.8,0,0,0,2.633-.776A5.464,5.464,0,0,0,35.773-8.71L39.25-6.887A10.786,10.786,0,0,1,37.883-4.98,7.4,7.4,0,0,1,35.5-3.225,8.609,8.609,0,0,1,31.722-2.5ZM27.638-13.267h7.831A3.339,3.339,0,0,0,34.3-15.6a3.993,3.993,0,0,0-2.684-.878,4.031,4.031,0,0,0-2.734.878A3.772,3.772,0,0,0,27.638-13.267Zm13.367,10.3,6.076-8.439-6.008-8.3H46l3.814,5.57h.608l3.814-5.57h4.928l-6.008,8.3,6.076,8.439h-5L50.423-8.609h-.608L46-2.971Z" transform="translate(39.288 28.389)" fill="#8ba9e0"/>
    </g>
  </g>
</svg>
