<svg xmlns="http://www.w3.org/2000/svg" width="54.587" height="54.84" viewBox="0 0 54.587 54.84">
  <g id="cart_shop_buy_retail" data-name="cart, shop, buy, retail" transform="translate(-2.55 -2.55)">
    <path id="Path_11710" data-name="Path 11710" d="M27.194,23a6.194,6.194,0,1,0,6.194,6.194A6.194,6.194,0,0,0,27.194,23Zm0,8.259a2.065,2.065,0,1,1,2.065-2.065A2.065,2.065,0,0,1,27.194,31.259Z" transform="translate(19.165 21.294)" fill="#3a7cf8" stroke="#fff" stroke-width="0.9"/>
    <path id="Path_11711" data-name="Path 11711" d="M33.971,44.294H17.453a2.065,2.065,0,0,1,0-4.129H50.488a2.065,2.065,0,0,0,2.036-1.725l4.129-24.777a2.065,2.065,0,0,0-2.036-2.4H21.582a2.065,2.065,0,0,0,0,4.129h30.6L48.739,36.035H23.013L11.128,4.34A2.066,2.066,0,0,0,9.194,3H5.065a2.065,2.065,0,1,0,0,4.129h2.7L18.6,36.035h-1.15a6.173,6.173,0,0,0-1.609,12.145,6.2,6.2,0,1,0,11.552.243h6.575a2.065,2.065,0,1,0,0-4.129ZM23.647,50.488a2.065,2.065,0,1,1-2.065-2.065,2.065,2.065,0,0,1,2.065,2.065Z" transform="translate(0 0)" fill="#3a7cf8" stroke="#fff" stroke-width="0.9"/>
  </g>
</svg>
