<svg xmlns="http://www.w3.org/2000/svg" width="54.601" height="59.221" viewBox="0 0 54.601 59.221">
  <g id="Layer_4" transform="translate(-7.433 -4)">
    <g id="Group_59032" data-name="Group 59032" transform="translate(7.433 4)">
      <path id="Path_11612" data-name="Path 11612" d="M22.644,9.751a1.418,1.418,0,1,0,2.005-2L21.318,4.415a1.418,1.418,0,0,0-2,2Z" transform="translate(-11.182 -4)" fill="#3b7bf8"/>
      <path id="Path_11613" data-name="Path 11613" d="M69.355,10.167a1.418,1.418,0,0,0,1-.415L73.69,6.421a1.418,1.418,0,0,0-2-2L68.353,7.747a1.418,1.418,0,0,0,1,2.42Z" transform="translate(-27.22 -4)" fill="#3b7bf8"/>
      <path id="Path_11614" data-name="Path 11614" d="M46.681,20.066a3.623,3.623,0,0,1,3.141,1.686,1.418,1.418,0,0,0,2.4-1.509,6.469,6.469,0,0,0-5.62-3.012,1.419,1.419,0,0,0-1.38,1.456,1.468,1.468,0,0,0,1.458,1.379Z" transform="translate(-19.792 -8.326)" fill="#3b7bf8"/>
      <path id="Path_11615" data-name="Path 11615" d="M59.6,19.576a39.207,39.207,0,0,0-11.327-.147A13.644,13.644,0,0,0,34.358,7.746,13.843,13.843,0,0,0,21.193,19.425a38.389,38.389,0,0,0-11.369.156,2.906,2.906,0,0,0-2.391,2.884V60.581A1.713,1.713,0,0,0,8.188,62a2.225,2.225,0,0,0,1.26.261l1.413-.209a48.078,48.078,0,0,1,21.258,1.653l2.2.674a1.449,1.449,0,0,0,.415.061,7.6,7.6,0,0,0,.888-.22,48.615,48.615,0,0,1,22.917-2.169,11.2,11.2,0,0,1,1.164.125A1.914,1.914,0,0,0,61.279,62a2.042,2.042,0,0,0,.755-1.423V22.465A2.914,2.914,0,0,0,59.6,19.576ZM34.434,10.581c.1,0,.2,0,.3,0a10.909,10.909,0,0,1,7.389,18.937,5.836,5.836,0,0,0-1.96,4.308,3.21,3.21,0,0,1-3.206,3.206H36.15V29.573a1.418,1.418,0,1,0-2.836,0v7.454h-.808A3.21,3.21,0,0,1,29.3,33.822a5.831,5.831,0,0,0-1.96-4.308,10.909,10.909,0,0,1,7.094-18.933Zm.3,33.3a3.394,3.394,0,0,1-3.39-3.392v-.742a6.03,6.03,0,0,0,1.158.117h4.453a6.05,6.05,0,0,0,1.139-.115v.74a3.381,3.381,0,0,1-3.361,3.392ZM10.449,59.249l-.178.03.064-36.907a35.864,35.864,0,0,1,10.734-.106A13.721,13.721,0,0,0,25.419,31.6a3.024,3.024,0,0,1,1.044,2.219,6.006,6.006,0,0,0,2.046,4.5v2.169a6.229,6.229,0,0,0,4.806,6.049V61.11L32.953,61A50.777,50.777,0,0,0,10.449,59.249Zm48.748.034-.253-.034a51.249,51.249,0,0,0-22.793,1.886v-14.6a6.22,6.22,0,0,0,4.783-6.049V38.336A6,6,0,0,0,43,33.822,3.033,3.033,0,0,1,44.046,31.6,13.736,13.736,0,0,0,48.4,22.269a34.252,34.252,0,0,1,10.8.2Z" transform="translate(-7.433 -5.223)" fill="#3b7bf8"/>
      <path id="Path_11616" data-name="Path 11616" d="M19.463,46.225h4.56a1.418,1.418,0,1,0,0-2.836h-4.56a1.418,1.418,0,1,0,0,2.836Z" transform="translate(-10.903 -16.881)" fill="#3b7bf8"/>
      <path id="Path_11617" data-name="Path 11617" d="M19.462,59.45h8.1a1.418,1.418,0,1,0,0-2.836h-8.1a1.418,1.418,0,1,0,0,2.836Z" transform="translate(-10.902 -21.206)" fill="#3b7bf8"/>
      <path id="Path_11618" data-name="Path 11618" d="M29.873,68.988H19.462a1.418,1.418,0,1,0,0,2.836H29.873a1.418,1.418,0,1,0,0-2.836Z" transform="translate(-10.902 -25.253)" fill="#3b7bf8"/>
      <path id="Path_11619" data-name="Path 11619" d="M66.968,45.658a1.419,1.419,0,0,0,1.42,1.418h4.559a1.418,1.418,0,0,0,0-2.836H68.388A1.419,1.419,0,0,0,66.968,45.658Z" transform="translate(-26.903 -17.16)" fill="#3b7bf8"/>
      <path id="Path_11620" data-name="Path 11620" d="M71.221,56.614h-8.1a1.418,1.418,0,0,0,0,2.836h8.1a1.418,1.418,0,1,0,0-2.836Z" transform="translate(-25.18 -21.206)" fill="#3b7bf8"/>
      <path id="Path_11621" data-name="Path 11621" d="M69.084,68.975h-9.4a1.418,1.418,0,1,0,0,2.836h9.4a1.418,1.418,0,0,0,0-2.836Z" transform="translate(-24.057 -25.249)" fill="#3b7bf8"/>
    </g>
  </g>
</svg>
