<svg xmlns="http://www.w3.org/2000/svg" width="30.154" height="23.34" viewBox="0 0 30.154 23.34">
  <path id="mail" d="M28.3,79.22l9.062,9.066a5.1,5.1,0,0,0,7.186,0l9.062-9.066a.206.206,0,0,0-.028-.315,5.685,5.685,0,0,0-3.26-1.027H31.589a5.685,5.685,0,0,0-3.26,1.027.206.206,0,0,0-.028.315Zm-2.422,4.368a5.666,5.666,0,0,1,.652-2.644.206.206,0,0,1,.329-.05l8.948,8.948a7.29,7.29,0,0,0,10.3,0l8.948-8.948a.206.206,0,0,1,.329.05,5.667,5.667,0,0,1,.652,2.644v11.92a5.716,5.716,0,0,1-5.71,5.71H31.589a5.716,5.716,0,0,1-5.71-5.71Z" transform="translate(-25.879 -77.878)" fill="#fff" fill-rule="evenodd"/>
</svg>
