<svg xmlns="http://www.w3.org/2000/svg" width="55.25" height="55.25" viewBox="0 0 55.25 55.25">
  <g id="fintech" transform="translate(-8.75 -8.75)">
    <path id="Path_11687" data-name="Path 11687" d="M232.487,201.238s-2.193-1.586-4.262-.962c-1.9.572-2.372,3.172-1.081,4.185a12.26,12.26,0,0,0,3.361,1.591c3.365,1.19,2.121,5.936-1.3,5.958a4.581,4.581,0,0,1-3.134-.844" transform="translate(-192.903 -169.746)" fill="none" stroke="#3b7bf8" stroke-linecap="round" stroke-linejoin="round" stroke-width="2.5"/>
    <line id="Line_58" data-name="Line 58" y1="1.732" transform="translate(36.3 42.265)" fill="none" stroke="#3b7bf8" stroke-linecap="round" stroke-linejoin="round" stroke-width="2.5"/>
    <line id="Line_59" data-name="Line 59" y1="1.606" transform="translate(36.3 28.753)" fill="none" stroke="#3b7bf8" stroke-linecap="round" stroke-linejoin="round" stroke-width="2.5"/>
    <path id="Path_11688" data-name="Path 11688" d="M62.75,40.211V32.539a2.144,2.144,0,0,0-2.144-2.144H56.158a20.531,20.531,0,0,0-1.566-3.779l3.145-3.145a2.144,2.144,0,0,0,0-3.032l-5.425-5.425a2.144,2.144,0,0,0-3.032,0l-3.145,3.145a20.531,20.531,0,0,0-3.779-1.566V12.144A2.144,2.144,0,0,0,40.211,10H32.539a2.144,2.144,0,0,0-2.144,2.144v4.447a20.532,20.532,0,0,0-3.779,1.566L23.47,15.012a2.144,2.144,0,0,0-3.032,0l-5.425,5.425a2.144,2.144,0,0,0,0,3.032l3.145,3.145a20.531,20.531,0,0,0-1.566,3.779H12.144A2.144,2.144,0,0,0,10,32.539v7.673a2.144,2.144,0,0,0,2.144,2.144h4.447a20.531,20.531,0,0,0,1.566,3.779L15.012,49.28a2.144,2.144,0,0,0,0,3.032l5.425,5.425a2.144,2.144,0,0,0,3.032,0l3.145-3.145a20.531,20.531,0,0,0,3.779,1.566v4.448a2.144,2.144,0,0,0,2.144,2.144h7.673a2.144,2.144,0,0,0,2.144-2.144V56.158a20.531,20.531,0,0,0,3.779-1.566l3.145,3.145a2.144,2.144,0,0,0,3.032,0l5.425-5.425a2.144,2.144,0,0,0,0-3.032l-3.145-3.145a20.531,20.531,0,0,0,1.566-3.779h4.448A2.144,2.144,0,0,0,62.75,40.211Z" transform="translate(0 0)" fill="none" stroke="#3b7bf8" stroke-linecap="round" stroke-linejoin="round" stroke-width="2.5"/>
    <path id="Path_11689" data-name="Path 11689" d="M151.832,133.773a14.1,14.1,0,1,0,.013,9.545" transform="translate(-102.188 -102.188)" fill="none" stroke="#3b7bf8" stroke-linecap="round" stroke-linejoin="round" stroke-width="2.5"/>
    <line id="Line_60" data-name="Line 60" transform="translate(50.478 36.375)" fill="none" stroke="#3b7bf8" stroke-linecap="round" stroke-linejoin="round" stroke-width="2.5"/>
  </g>
</svg>
