<svg xmlns="http://www.w3.org/2000/svg" width="75.647" height="49.807" viewBox="0 0 75.647 49.807">
  <g id="console" transform="translate(0.249 -54.916)">
    <g id="Group_59021" data-name="Group 59021" transform="translate(0 55.109)">
      <g id="Group_59020" data-name="Group 59020" transform="translate(0 0)">
        <path id="Path_11607" data-name="Path 11607" d="M75.108,89.243a70.147,70.147,0,0,0-2.059-13.572,52.091,52.091,0,0,0-4.212-11.419c-6.552-11.513-13.666-9.734-22.183-7.488a60.969,60.969,0,0,1-8.611,1.685h-.936A60.968,60.968,0,0,1,28.5,56.764c-8.518-2.153-15.631-4.025-22.183,7.582A47.717,47.717,0,0,0,2.1,75.765,70.146,70.146,0,0,0,.041,89.337c-.187,4.774.281,8.237,1.31,10.67a7.094,7.094,0,0,0,4.493,4.212,9.152,9.152,0,0,0,5.99-.655c3.65-1.5,7.862-4.68,11.981-8.518,2.9-2.808,8.33-4.212,13.759-4.212s10.858,1.4,13.759,4.212c4.118,3.838,8.33,7.02,11.981,8.518a9.791,9.791,0,0,0,5.99.655A6.994,6.994,0,0,0,73.8,99.914C74.827,97.574,75.3,94.111,75.108,89.243ZM70.615,98.6a3.712,3.712,0,0,1-2.246,2.34,6.463,6.463,0,0,1-3.838-.468c-3.276-1.31-7.114-4.212-10.858-7.769-3.557-3.557-9.828-5.335-16.1-5.335S25.032,89.15,21.382,92.519c-3.838,3.557-7.675,6.552-10.858,7.769a5.806,5.806,0,0,1-3.838.468,3.712,3.712,0,0,1-2.246-2.34c-.749-1.778-1.123-4.68-.936-8.986A64.563,64.563,0,0,1,5.47,76.514,44.662,44.662,0,0,1,9.4,65.937c5.148-9.266,11.138-7.769,18.252-5.9a54.9,54.9,0,0,0,9.173,1.778h1.4A54.225,54.225,0,0,0,47.5,60.04c7.114-1.778,13.1-3.37,18.252,5.9a43.16,43.16,0,0,1,3.931,10.577,70.845,70.845,0,0,1,1.966,12.917C71.832,93.736,71.457,96.638,70.615,98.6Z" transform="translate(0 -55.109)" fill="#3b7bf8" stroke="#fff" stroke-width="0.5"/>
      </g>
    </g>
    <g id="Group_59023" data-name="Group 59023" transform="translate(9.682 64.439)">
      <g id="Group_59022" data-name="Group 59022" transform="translate(0 0)">
        <path id="Path_11608" data-name="Path 11608" d="M60.655,101.533a5.687,5.687,0,0,0-3.37-1.591,5.326,5.326,0,0,0-1.5-3.276l-.094-.094a5.3,5.3,0,0,0-3.838-1.591,5.527,5.527,0,0,0-3.838,1.591,5.441,5.441,0,0,0-1.591,3.37,5.576,5.576,0,0,0-3.37,1.5l-.094.094a5.3,5.3,0,0,0-1.591,3.838,5.527,5.527,0,0,0,1.591,3.838,5.218,5.218,0,0,0,3.463,1.591,4.993,4.993,0,0,0,1.591,3.37,5.3,5.3,0,0,0,3.838,1.591,5.526,5.526,0,0,0,3.838-1.591,5.687,5.687,0,0,0,1.591-3.37,4.993,4.993,0,0,0,3.37-1.591,5.3,5.3,0,0,0,1.591-3.838A5.527,5.527,0,0,0,60.655,101.533Zm-2.34,5.242a1.9,1.9,0,0,1-1.4.562H55.6a1.777,1.777,0,0,0-1.778,1.778v1.217a1.966,1.966,0,1,1-3.931,0v-1.31a1.777,1.777,0,0,0-1.778-1.778H46.8a1.919,1.919,0,0,1-1.4-3.276l.094-.094a2.236,2.236,0,0,1,1.31-.468h1.31a1.777,1.777,0,0,0,1.778-1.778v-1.31a1.986,1.986,0,0,1,3.37-1.4l.094.094a2.236,2.236,0,0,1,.468,1.31v1.31A1.777,1.777,0,0,0,55.6,103.4h1.31a1.986,1.986,0,0,1,1.4,3.37Z" transform="translate(-41.373 -94.981)" fill="#3b7bf8" stroke="#fff" stroke-width="0.5"/>
      </g>
    </g>
    <g id="Group_59025" data-name="Group 59025" transform="translate(50.585 64.907)">
      <g id="Group_59024" data-name="Group 59024">
        <circle id="Ellipse_20" data-name="Ellipse 20" cx="3.276" cy="3.276" r="3.276" fill="#3b7bf8" stroke="#fff" stroke-width="0.5"/>
      </g>
    </g>
    <g id="Group_59027" data-name="Group 59027" transform="translate(50.585 78.199)">
      <g id="Group_59026" data-name="Group 59026">
        <circle id="Ellipse_21" data-name="Ellipse 21" cx="3.276" cy="3.276" r="3.276" fill="#3b7bf8" stroke="#fff" stroke-width="0.5"/>
      </g>
    </g>
    <g id="Group_59029" data-name="Group 59029" transform="translate(43.939 71.553)">
      <g id="Group_59028" data-name="Group 59028" transform="translate(0 0)">
        <circle id="Ellipse_22" data-name="Ellipse 22" cx="3.276" cy="3.276" r="3.276" fill="#3b7bf8" stroke="#fff" stroke-width="0.5"/>
      </g>
    </g>
    <g id="Group_59031" data-name="Group 59031" transform="translate(57.23 71.553)">
      <g id="Group_59030" data-name="Group 59030" transform="translate(0 0)">
        <circle id="Ellipse_23" data-name="Ellipse 23" cx="3.276" cy="3.276" r="3.276" fill="#3b7bf8" stroke="#fff" stroke-width="0.5"/>
      </g>
    </g>
  </g>
</svg>
