<svg xmlns="http://www.w3.org/2000/svg" width="229.312" height="34.216" viewBox="0 0 229.312 34.216">
  <g id="goodfirms-logo-vector" transform="translate(-18.49 -184.93)">
    <path id="Path_11658" data-name="Path 11658" d="M19.647,190.545a11.363,11.363,0,0,1,6.761-5.277,9.012,9.012,0,0,1,2.684-.338q11.557.037,22.994.016a.165.165,0,0,1,.186.186V194.2a.124.124,0,0,1-.122.125q-10.852.011-21.752-.005a2.336,2.336,0,0,0-2.455,2.45q-.013,11.12-.005,22.284a.077.077,0,0,1-.077.077l-9.293,0a.077.077,0,0,1-.077-.077q0-12.442,0-24.454A8.623,8.623,0,0,1,19.647,190.545Z" transform="translate(0)" fill="#3a7af3"/>
    <path id="Path_11659" data-name="Path 11659" d="M629.018,194.565l2.45-3.035a.088.088,0,0,1,.138,0l2.343,3.024a.088.088,0,0,1,0,.109l-2.45,3.069a.088.088,0,0,1-.138,0l-2.343-3.059a.088.088,0,0,1,0-.109Z" transform="translate(-448.127 -4.821)" fill="#fff"/>
    <path id="Path_11660" data-name="Path 11660" d="M197.668,210.822h-7.923a.106.106,0,0,1-.1-.138l1.067-3.383a.17.17,0,0,1,.178-.133h10.769a.118.118,0,0,1,.133.133v11.9a.265.265,0,0,1-.112.215c-2.668,1.87-6.022,3.705-9.317,3.649a16.492,16.492,0,0,1-6.032-1.154,13.677,13.677,0,0,1-8.235-9.354,14.575,14.575,0,0,1,3.442-13.363,12.266,12.266,0,0,1,9.075-4.277,15.668,15.668,0,0,1,10.49,3.809.133.133,0,0,1,.011.186l-2.232,2.495a.158.158,0,0,1-.255.011,11.192,11.192,0,0,0-7.32-2.644,8.45,8.45,0,0,0-7.259,3.484,11.5,11.5,0,0,0-2.077,9.211c.846,4.676,5.213,7.626,9.918,7.775a8.341,8.341,0,0,0,5.889-2.4.289.289,0,0,0,.09-.21v-5.6A.178.178,0,0,0,197.668,210.822Z" transform="translate(-116.871 -7.324)" fill="#fff"/>
    <path id="Path_11661" data-name="Path 11661" d="M480.208,204.446q.186.269.186-.058v-8.631a.132.132,0,0,1,.125-.146l3.553-.495q.125-.016.125.109l-.1,26.978a.113.113,0,0,1-.106.125l-3.248.489a.189.189,0,0,1-.215-.186l-.005-3q0-.231-.144-.051c-3.21,4.011-9.275,3.984-12.934.854a10.289,10.289,0,0,1-3.726-7.357,11.116,11.116,0,0,1,.851-5.274,9.819,9.819,0,0,1,8.283-6.133C475.591,201.514,478.618,202.137,480.208,204.446Zm-7.189.92c-8.442,1.067-6.83,15.078,1.995,13.567a7.291,7.291,0,0,0,4.54-2.787,6.971,6.971,0,0,0-6.535-10.78Z" transform="translate(-326.785 -7.475)" fill="#fff"/>
    <path id="Path_11662" data-name="Path 11662" d="M564.46,207.974h8.08a.082.082,0,0,1,.082.082v3.556a.082.082,0,0,1-.082.082h-8.078a.082.082,0,0,0-.082.082l0,11.809a.082.082,0,0,1-.072.082l-3.952.575a.082.082,0,0,1-.093-.082V197.082a.082.082,0,0,1,.082-.082l13.8,0a.082.082,0,0,1,.08.066l.766,3.623a.082.082,0,0,1-.08.1H564.462a.082.082,0,0,0-.082.082l0,7.019A.083.083,0,0,0,564.46,207.974Z" transform="translate(-397.671 -8.86)" fill="#fff"/>
    <path id="Path_11663" data-name="Path 11663" d="M833.664,224.957a2.109,2.109,0,0,0,1.617,1.484q1.218.38,2.508.692c2.346.567,4.758,2.083,5.208,4.516.6,3.274-.6,6.046-3.609,7.389a7.711,7.711,0,0,1-4.094.535,8.2,8.2,0,0,1-5.687-3.224.151.151,0,0,1,.021-.231l2.46-2.21a.126.126,0,0,1,.1-.032.121.121,0,0,1,.087.05,4.744,4.744,0,0,0,4.453,2.08,2.665,2.665,0,0,0,2.657-2.7,2.184,2.184,0,0,0-1.838-2.186q-1.458-.447-2.934-.883c-1.851-.545-3.87-1.644-4.479-3.588-1.559-4.987,2.415-8.937,7.352-8.187a8.365,8.365,0,0,1,4.732,2.513.315.315,0,0,1,.011.492l-1.974,2.128a.155.155,0,0,1-.25.008,5.43,5.43,0,0,0-3.609-1.755C834.552,221.835,833.275,222.952,833.664,224.957Z" transform="translate(-595.346 -24.542)" fill="#fff"/>
    <path id="Path_11664" data-name="Path 11664" d="M292.953,240.609A10.669,10.669,0,1,1,303.9,230.353a10.606,10.606,0,0,1-10.945,10.256Zm-.1-3.777a6.874,6.874,0,1,0-6.139-7.34A6.768,6.768,0,0,0,292.854,236.832Z" transform="translate(-194.023 -25.214)" fill="#fff"/>
    <path id="Path_11665" data-name="Path 11665" d="M385.664,240.61a10.669,10.669,0,1,1,10.93-10.275,10.608,10.608,0,0,1-10.93,10.275Zm-.059-3.774a6.873,6.873,0,1,0-6.246-7.253,6.77,6.77,0,0,0,6.246,7.253Z" transform="translate(-262.06 -25.214)" fill="#fff"/>
    <path id="Path_11666" data-name="Path 11666" d="M732.645,222.849c1.684-2.556,4.306-3.317,7.189-2.787,3.564.657,4.849,3.673,4.841,6.966q-.016,6.756,0,13.344a.146.146,0,0,1-.141.162l-3.439.479q-.152.021-.152-.13,0-7.2,0-13.28c0-1.811-.3-3.551-2.431-3.966a3.621,3.621,0,0,0-4.439,2.519,6.544,6.544,0,0,0-.266,2.053q.051,5.963.011,12.054a.187.187,0,0,1-.173.2l-3.484.617a.1.1,0,0,1-.085-.023.108.108,0,0,1-.038-.081q.037-7.184-.048-13.469-.005-.452-.019-.907a3.6,3.6,0,0,0-.13-.848q-.715-2.5-3.625-2.24c-2.482.223-3.253,2.556-3.266,4.724q-.035,5.969-.024,11.993a.178.178,0,0,1-.162.194l-3.6.617q-.165.027-.165-.136V220.865a.1.1,0,0,1,.088-.1l3.367-.559a.124.124,0,0,1,.1.028.118.118,0,0,1,.042.092l-.011,2.186q0,.21.112.035c1.62-2.484,4.04-3.029,6.812-2.386a4.735,4.735,0,0,1,2.931,2.681Q732.536,223.017,732.645,222.849Z" transform="translate(-514.19 -25.671)" fill="#fff"/>
    <path id="Path_11667" data-name="Path 11667" d="M669.016,224.618q0,.141.077.024.447-.678.883-1.418a5.245,5.245,0,0,1,3.716-2.527,27.327,27.327,0,0,1,3.335-.247.08.08,0,0,1,.074.112l-1.686,3.851a.251.251,0,0,1-.242.149c-3.293-.2-4.844,1.678-5.631,4.625a9.6,9.6,0,0,0-.269,2.519q.032,4.511.011,9.017a.151.151,0,0,1-.141.165l-3.444.556q-.2.032-.2-.17v-19.9a.133.133,0,0,1,.122-.146l3.269-.6q.138-.024.136.114Z" transform="translate(-474.92 -26.073)" fill="#fff"/>
    <path id="Path_11668" data-name="Path 11668" d="M634.548,221.387V241.46a.08.08,0,0,1-.069.08l-3.628.511a.08.08,0,0,1-.09-.08V221.953a.08.08,0,0,1,.067-.08l3.628-.567a.08.08,0,0,1,.093.08Z" transform="translate(-449.42 -26.701)" fill="#fff"/>
    <path id="Path_11669" data-name="Path 11669" d="M76.56,239.037h-12.2a.117.117,0,0,1-.117-.117q0-3.553-.005-7.437a1.419,1.419,0,0,1,1.489-1.476q10.73-.024,20.438-.011a.1.1,0,0,1,.1.1q-.045,5.107.011,10.631a16.2,16.2,0,0,1-.471,4.8,9.759,9.759,0,0,1-6.673,6.36,7.375,7.375,0,0,1-2.349.333q-6.019-.043-12.379-.011a.138.138,0,0,1-.157-.154V242.57a.127.127,0,0,1,.144-.144q5.958.011,11.115,0a1.076,1.076,0,0,0,1.226-1.157q.032-.939.019-2.045A.168.168,0,0,0,76.56,239.037Z" transform="translate(-33.582 -33.077)" fill="#3a7af3"/>
  </g>
</svg>
