<svg xmlns="http://www.w3.org/2000/svg" width="150.261" height="29.755" viewBox="0 0 150.261 29.755">
  <g id="Group_59244" data-name="Group 59244" transform="translate(-677.286 -2478.216)">
    <g id="LOGO_03" data-name="LOGO 03" transform="translate(524.001 2432)">
      <g id="Group_59245" data-name="Group 59245" transform="translate(153.286 46.215)">
        <g id="Group_859" data-name="Group 859" transform="translate(40.051 22.087)">
          <path id="Path_3802" data-name="Path 3802" d="M92.663,57.905H93.6v4.028h-.846l-1.818-2.517v2.492H90V57.88h.856L92.678,60.4V59.32Z" transform="translate(-90 -57.814)" fill="#8ba9e0"/>
          <path id="Path_3803" data-name="Path 3803" d="M104.146,61.162h2.215v.8H103.23V57.93h3.076v.785h-2.16v.821h2.014v.76h-2.014Z" transform="translate(-96.569 -57.839)" fill="#8ba9e0"/>
          <path id="Path_3804" data-name="Path 3804" d="M117.523,57.93h1.042l-1.651,4.028h-1.007L114.25,57.93h1.042l.544,1.369.569,1.566.579-1.566Z" transform="translate(-102.041 -57.839)" fill="#8ba9e0"/>
          <path id="Path_3805" data-name="Path 3805" d="M128.9,61.162h2.22v.8H128V57.93h3.071v.785h-2.16v.821h2.039v.76h-2.039Z" transform="translate(-108.868 -57.839)" fill="#8ba9e0"/>
          <path id="Path_3806" data-name="Path 3806" d="M141.415,60.628h-.544v1.329h-.941V57.93h1.964a1.682,1.682,0,0,1,.765.171,1.223,1.223,0,0,1,.5.5,1.364,1.364,0,0,1,.181.715,1.289,1.289,0,0,1-.237.785,1.314,1.314,0,0,1-.68.468l1.138,1.41h-1.118Zm.826-1.747a.649.649,0,0,0-.458-.146h-.916v1.133h.916a.7.7,0,0,0,.463-.146.619.619,0,0,0,0-.841Z" transform="translate(-114.792 -57.839)" fill="#8ba9e0"/>
          <path id="Path_3807" data-name="Path 3807" d="M162.274,58.071a1.3,1.3,0,0,1,.534.5,1.616,1.616,0,0,1,0,1.51,1.329,1.329,0,0,1-.534.5,1.828,1.828,0,0,1-.816.171h-1.007V61.9h-.941V57.87h1.928a1.828,1.828,0,0,1,.836.2Zm-.383,1.727a.665.665,0,0,0,0-.9.7.7,0,0,0-.473-.166h-.947v1.213h.947a.675.675,0,0,0,.468-.171Z" transform="translate(-124.514 -57.809)" fill="#8ba9e0"/>
          <path id="Path_3808" data-name="Path 3808" d="M173.98,61.958l-.3-.72h-1.964l-.3.72H170.41l1.807-4.028h1.007l1.8,4.028Zm-1.259-3.127-.66,1.586h1.309Z" transform="translate(-129.926 -57.839)" fill="#8ba9e0"/>
          <path id="Path_3809" data-name="Path 3809" d="M186.994,57.93l-1.636,2.447v1.581h-.921V60.377L182.85,57.93h1.082l.957,1.566.977-1.566Z" transform="translate(-136.103 -57.839)" fill="#8ba9e0"/>
          <path id="Path_3810" data-name="Path 3810" d="M201.781,58.756h-2.014v.957h1.918v.8h-1.918v1.445H198.8V57.93h2.981Z" transform="translate(-144.022 -57.839)" fill="#8ba9e0"/>
          <path id="Path_3811" data-name="Path 3811" d="M210.785,61.56a1.8,1.8,0,0,1-.478-1.339V57.93h.947v2.291a1.047,1.047,0,0,0,.227.72.821.821,0,0,0,.655.262.841.841,0,0,0,.644-.262,1.037,1.037,0,0,0,.237-.72V57.93h.947v2.291a1.908,1.908,0,0,1-2.014,1.818,1.873,1.873,0,0,1-1.178-.5Z" transform="translate(-149.734 -57.839)" fill="#8ba9e0"/>
          <path id="Path_3812" data-name="Path 3812" d="M223.515,57.93h.947v3.177h2.014v.851H223.51V57.93Z" transform="translate(-156.292 -57.839)" fill="#8ba9e0"/>
          <path id="Path_3813" data-name="Path 3813" d="M234.815,57.93h.947v3.177h2.014v.851H234.81V57.93Z" transform="translate(-161.902 -57.839)" fill="#8ba9e0"/>
          <path id="Path_3814" data-name="Path 3814" d="M260.1,58.071a1.279,1.279,0,0,1,.539.5,1.616,1.616,0,0,1,0,1.51,1.314,1.314,0,0,1-.539.5,1.793,1.793,0,0,1-.811.171h-1.007V61.9h-.947V57.87h1.928a1.863,1.863,0,0,1,.836.2Zm-.378,1.727a.675.675,0,0,0,0-.9.7.7,0,0,0-.473-.166h-.947v1.213h.947a.675.675,0,0,0,.468-.171Z" transform="translate(-173.089 -57.809)" fill="#8ba9e0"/>
          <path id="Path_3815" data-name="Path 3815" d="M271.19,60.628h-.544v1.329H269.7V57.93h1.964a1.707,1.707,0,0,1,.77.171,1.259,1.259,0,0,1,.5.5,1.359,1.359,0,0,1,.176.715,1.244,1.244,0,0,1-.911,1.254l1.138,1.41h-1.123Zm.831-1.747a.649.649,0,0,0-.458-.146h-.916v1.133h.916a.72.72,0,0,0,.468-.146.539.539,0,0,0,.156-.418.579.579,0,0,0-.166-.423Z" transform="translate(-179.226 -57.839)" fill="#8ba9e0"/>
          <path id="Path_3816" data-name="Path 3816" d="M282.33,57.93h.941v4.028h-.941Z" transform="translate(-185.497 -57.839)" fill="#8ba9e0"/>
          <path id="Path_3817" data-name="Path 3817" d="M290.856,61.7a1.918,1.918,0,0,1-.76-.74,2.22,2.22,0,0,1-.267-1.1,2.094,2.094,0,0,1,.277-1.1,1.838,1.838,0,0,1,.76-.745,2.386,2.386,0,0,1,1.118-.262,2.115,2.115,0,0,1,1.51.629l-.559.579a1.314,1.314,0,0,0-.931-.368,1.244,1.244,0,0,0-.639.161,1.067,1.067,0,0,0-.428.443,1.51,1.51,0,0,0,0,1.324,1.143,1.143,0,0,0,.428.448,1.244,1.244,0,0,0,.639.161,1.586,1.586,0,0,0,.554-.1,1.344,1.344,0,0,0,.458-.3l.554.614a2.2,2.2,0,0,1-1.571.624,2.472,2.472,0,0,1-1.143-.267Z" transform="translate(-189.221 -57.75)" fill="#8ba9e0"/>
          <path id="Path_3818" data-name="Path 3818" d="M303.586,61.162h2.22v.8H302.67V57.93h3.071v.785h-2.16v.821H305.6v.76h-2.014v.866Z" transform="translate(-195.597 -57.839)" fill="#8ba9e0"/>
        </g>
        <path id="Vector-2" d="M54.334,65.687a2.452,2.452,0,1,1-2.447-2.447A2.452,2.452,0,0,1,54.334,65.687Z" transform="translate(-29.805 -38.389)" fill="#8ba9e0"/>
        <path id="Vector-3" d="M32.084,65.687a2.447,2.447,0,1,1-2.447-2.447A2.447,2.447,0,0,1,32.084,65.687Z" transform="translate(-18.762 -38.389)" fill="#8ba9e0"/>
        <path id="Path_3819" data-name="Path 3819" d="M20,35.3V29.614L40.21,20.466c1.631-.735,3.388,1.908,3.338,3.7h0a1.41,1.41,0,0,1-.836,1.254l-22.5,10.024a.156.156,0,0,1-.216-.07A.161.161,0,0,1,20,35.3Z" transform="translate(-15.188 -17.087)" fill="#8ba9e0"/>
        <path id="Path_3820" data-name="Path 3820" d="M20,35.3V29.614L40.21,20.466c1.631-.735,3.388,1.908,3.338,3.7h0a1.41,1.41,0,0,1-.836,1.254l-22.5,10.024a.156.156,0,0,1-.216-.07A.161.161,0,0,1,20,35.3Z" transform="translate(-15.188 -17.087)" fill="#8ba9e0"/>
        <path id="Vector-4" d="M15.49,17.626l-.282,3.434a1.108,1.108,0,0,0,1.007,1.2H37.768a1.118,1.118,0,0,0,1.118-1.032A4.134,4.134,0,0,0,35.12,16.75h0a3.861,3.861,0,0,0-.418,0H17.483a3.932,3.932,0,0,0-.856-1.7,3.716,3.716,0,0,0-2.694-1.173H11.5a1.047,1.047,0,0,0,0,2.094h2.437A1.546,1.546,0,0,1,15.48,17.51a.267.267,0,0,1,.01.116Z" transform="translate(-10.45 -13.88)" fill="#8ba9e0"/>
        <path id="Path_3821" data-name="Path 3821" d="M20,49.26c-.091,2.165,2.15,4.028,5.14,4.2H38.223c2.945-.04,5.377-1.687,5.644-3.821l.04-.4H20Z" transform="translate(-15.189 -31.437)" fill="#8ba9e0"/>
        <g id="Group_860" data-name="Group 860" transform="translate(40.157 4.284)">
          <path id="Path_3822" data-name="Path 3822" d="M101.684,35.874H97.762l-4.531-5.105v5.105H90.21V23h3.021v5.035L97.455,23h3.726l-5.437,6.308Z" transform="translate(-90.21 -22.692)" fill="#8ba9e0"/>
          <path id="Path_3823" data-name="Path 3823" d="M115.22,23h3.021V35.879H115.22Z" transform="translate(-102.628 -22.692)" fill="#8ba9e0"/>
          <path id="Path_3824" data-name="Path 3824" d="M128.585,35.04a5.991,5.991,0,0,1-2.442-2.371,7.582,7.582,0,0,1,0-7.049,6.042,6.042,0,0,1,2.437-2.371,7.507,7.507,0,0,1,3.6-.821,6.726,6.726,0,0,1,4.894,2.014l-1.873,1.838a4.138,4.138,0,0,0-2.96-1.173,4.073,4.073,0,0,0-2.054.5,3.479,3.479,0,0,0-1.38,1.425,4.843,4.843,0,0,0,0,4.234,3.479,3.479,0,0,0,1.38,1.425,4.073,4.073,0,0,0,2.054.5,4.682,4.682,0,0,0,1.762-.332,4.083,4.083,0,0,0,1.47-.957l1.767,1.969a6.978,6.978,0,0,1-5.035,2.014A7.477,7.477,0,0,1,128.585,35.04Z" transform="translate(-107.62 -22.407)" fill="#8ba9e0"/>
          <path id="Path_3825" data-name="Path 3825" d="M163.934,35.874h-3.917l-4.531-5.105v5.105H152.5V23h3v5.035L159.72,23h3.716l-5.422,6.308Z" transform="translate(-121.139 -22.692)" fill="#8ba9e0"/>
          <path id="Path_3826" data-name="Path 3826" d="M194.305,23.8a5.538,5.538,0,0,1,2.316,2.245,7.456,7.456,0,0,1,0,6.782,5.573,5.573,0,0,1-2.316,2.251,7.4,7.4,0,0,1-3.494.79H185.55V23h5.261A7.461,7.461,0,0,1,194.305,23.8Zm-.876,8.418a3.806,3.806,0,0,0,1.007-2.774,4.229,4.229,0,0,0-.448-2.014,3.268,3.268,0,0,0-1.264-1.324,3.806,3.806,0,0,0-1.888-.468h-2.261v7.607h2.235A3.439,3.439,0,0,0,193.429,32.217Z" transform="translate(-137.549 -22.691)" fill="#8ba9e0"/>
          <path id="Path_3827" data-name="Path 3827" d="M216.17,33.341h7.1v2.517H213.25V23h9.813v2.517H216.17v2.608h6.545v2.427H216.17Z" transform="translate(-151.303 -22.692)" fill="#8ba9e0"/>
          <path id="Path_3828" data-name="Path 3828" d="M246,35.874l-.957-2.3H238.7l-.957,2.311H234.53L240.3,23h3.217l5.729,12.869Zm-4.1-9.979-2.1,5.075H244Z" transform="translate(-161.869 -22.692)" fill="#8ba9e0"/>
          <path id="Path_3829" data-name="Path 3829" d="M266.3,23h3.021V33.16h6.47v2.719H266.3Z" transform="translate(-177.644 -22.692)" fill="#8ba9e0"/>
          <path id="Path_3830" data-name="Path 3830" d="M289.517,35.394A7.94,7.94,0,0,1,287,34.049l1.561-2.185a6.273,6.273,0,0,0,3.977,1.339,3.68,3.68,0,0,0,1.807-.378,1.173,1.173,0,0,0,.65-1.067,1.082,1.082,0,0,0-.629-.972,5.754,5.754,0,0,0-1.989-.5,7.859,7.859,0,0,1-3.847-1.234,3.177,3.177,0,0,1-1.223-2.684,3.393,3.393,0,0,1,.665-2.079,4.285,4.285,0,0,1,1.858-1.395,7.159,7.159,0,0,1,2.754-.5,9.239,9.239,0,0,1,2.623.383,7.552,7.552,0,0,1,2.245,1.087l-1.41,2.115a5.765,5.765,0,0,0-3.333-1.047,3.665,3.665,0,0,0-1.787.373,1.108,1.108,0,0,0-.67,1.007,1.007,1.007,0,0,0,.579.936,5.624,5.624,0,0,0,1.938.5,7.871,7.871,0,0,1,3.9,1.3,3.308,3.308,0,0,1,1.289,2.749,3.524,3.524,0,0,1-.68,2.14,4.355,4.355,0,0,1-1.913,1.435,7.351,7.351,0,0,1-2.83.5A10.376,10.376,0,0,1,289.517,35.394Z" transform="translate(-187.922 -22.388)" fill="#8ba9e0"/>
        </g>
      </g>
    </g>
  </g>
</svg>
