<svg xmlns="http://www.w3.org/2000/svg" width="60.007" height="50.878" viewBox="0 0 60.007 50.878">
  <g id="g1071" transform="translate(0.581 683.634)">
    <g id="g1073" transform="translate(0.669 -682.384)">
      <g id="Group_59253" data-name="Group 59253" transform="translate(0 0)">
        <g id="g1081" transform="translate(2.419 11.878)">
          <path id="path1083" d="M-247.791-218.649l1.189,1.3a28.05,28.05,0,0,0,20.7,9.125h9.385a5.065,5.065,0,0,1-5.077,5.065l-12.105-.031a19.326,19.326,0,0,1-12.932-5.008l-22.91-20.769A6.272,6.272,0,0,1-267-239.658h0l12.107,13.245" transform="translate(271.6 239.658)" fill="none" stroke="#3a7cf8" stroke-linecap="round" stroke-linejoin="round" stroke-width="2.5"/>
        </g>
        <g id="g1085" transform="translate(6.619)">
          <path id="path1087" d="M0-123.623A13.746,13.746,0,0,1,13.617-135.5l.607,2.214a7.934,7.934,0,0,0,9.831,5.531h0a4.321,4.321,0,0,1,5.219,2.6l6.963,18.038a8.477,8.477,0,0,0,5.4,5.046l2.535.784a9.527,9.527,0,0,1,6.711,9.1" transform="translate(0 135.501)" fill="none" stroke="#3a7cf8" stroke-linecap="round" stroke-linejoin="round" stroke-width="2.5"/>
        </g>
        <g id="g1089" transform="translate(11.272 3.327)">
          <path id="path1091" d="M-24.789-164.479a9.6,9.6,0,0,0,3.13-7.1,9.623,9.623,0,0,0-5.512-8.7" transform="translate(27.171 180.284)" fill="none" stroke="#3a7cf8" stroke-linecap="round" stroke-linejoin="round" stroke-width="2.5"/>
        </g>
        <g id="g1093" transform="translate(34.381 13.162)">
          <path id="path1095" d="M-27.071,0l-2.6,1.182" transform="translate(29.672)" fill="none" stroke="#3a7cf8" stroke-linecap="round" stroke-linejoin="round" stroke-width="2.5"/>
        </g>
        <g id="g1097" transform="translate(36.517 19.031)">
          <path id="path1099" d="M-27.167,0l-2.61,1.186" transform="translate(29.777)" fill="none" stroke="#3a7cf8" stroke-linecap="round" stroke-linejoin="round" stroke-width="2.5"/>
        </g>
        <g id="g1101" transform="translate(39.396 25.057)">
          <path id="path1103" d="M-19.125,0l-1.838.835" transform="translate(20.963)" fill="none" stroke="#3a7cf8" stroke-linecap="round" stroke-linejoin="round" stroke-width="2.5"/>
        </g>
        <g id="g1105" transform="translate(31.86 31.083)">
          <path id="path1107" d="M-131.966,0a51.791,51.791,0,0,1-12.68,7.036" transform="translate(144.646)" fill="none" stroke="#3a7cf8" stroke-linecap="round" stroke-linejoin="round" stroke-width="2.5"/>
        </g>
        <g id="g1109" transform="translate(26.765 7.745)">
          <path id="path1111" d="M-119.013-279.5l-10.641-18.368a5.881,5.881,0,0,1,3.116-8.488" transform="translate(130.448 306.354)" fill="none" stroke="#3a7cf8" stroke-linecap="round" stroke-linejoin="round" stroke-width="2.5"/>
        </g>
        <g id="g1113" transform="translate(16.559 48.347)">
          <path id="path1115" d="M-247.33,0H-271.1" transform="translate(271.095)" fill="none" stroke="#3a7cf8" stroke-linecap="round" stroke-linejoin="round" stroke-width="2.5"/>
        </g>
        <g id="g1117" transform="translate(2.408 48.347)">
          <path id="path1119" d="M-85.219,0h-8.188" transform="translate(93.408)" fill="none" stroke="#3a7cf8" stroke-linecap="round" stroke-linejoin="round" stroke-width="2.5"/>
        </g>
        <g id="g1121" transform="translate(0 41.493)">
          <path id="path1123" d="M-33.384,0h-3.208" transform="translate(36.592)" fill="none" stroke="#3a7cf8" stroke-linecap="round" stroke-linejoin="round" stroke-width="2.5"/>
        </g>
        <g id="g1125" transform="translate(8.74 41.493)">
          <path id="path1127" d="M-77.71,0h-7.467" transform="translate(85.177)" fill="none" stroke="#3a7cf8" stroke-linecap="round" stroke-linejoin="round" stroke-width="2.5"/>
        </g>
        <g id="g1129" transform="translate(3.208 34.639)">
          <path id="path1131" d="M-148.331,0h-14.252" transform="translate(162.584)" fill="none" stroke="#3a7cf8" stroke-linecap="round" stroke-linejoin="round" stroke-width="2.5"/>
        </g>
        <g id="g1133" transform="translate(22.681 29.005)">
          <path id="path1135" d="M0,0H0" fill="none" stroke="#3a7cf8" stroke-linecap="round" stroke-linejoin="round" stroke-width="2.5"/>
        </g>
      </g>
    </g>
  </g>
</svg>
