<svg xmlns="http://www.w3.org/2000/svg" width="53.841" height="59.545" viewBox="0 0 53.841 59.545">
  <g id="g1341" transform="translate(-0.912 683.086)">
    <g id="g1343" transform="translate(2.162 -681.836)">
      <g id="Group_59239" data-name="Group 59239" transform="translate(0 0)">
        <g id="g1351">
          <path id="path1353" d="M0,0H3.8a3.8,3.8,0,0,1,3.8,3.8v38.03a3.8,3.8,0,0,0,3.8,3.8H45.636" fill="none" stroke="#3a7cf8" stroke-linecap="round" stroke-linejoin="round" stroke-width="2.5"/>
        </g>
        <path id="path1355" d="M266.355-382.781h22.818V-405.6H266.355Z" transform="translate(-247.34 428.417)" fill="none" stroke="#3a7cf8" stroke-linecap="round" stroke-linejoin="round" stroke-width="2.5"/>
        <path id="path1357" d="M223.51-639.847h22.818v-22.818H223.51Z" transform="translate(-208.298 662.665)" fill="none" stroke="#3a7cf8" stroke-linecap="round" stroke-linejoin="round" stroke-width="2.5"/>
        <path id="path1359" d="M352.043-397.993h7.606V-405.6h-7.606Z" transform="translate(-325.422 428.417)" fill="none" stroke="#3a7cf8" stroke-linecap="round" stroke-linejoin="round" stroke-width="2.5"/>
        <path id="path1361" d="M309.2-655.059h7.606v-7.606H309.2Z" transform="translate(-286.381 662.665)" fill="none" stroke="#3a7cf8" stroke-linecap="round" stroke-linejoin="round" stroke-width="2.5"/>
        <g id="g1363" transform="translate(13.311 45.636)">
          <path id="path1365" d="M-58.562,0a5.708,5.708,0,0,1,5.7,5.7,5.708,5.708,0,0,1-5.7,5.7,5.708,5.708,0,0,1-5.7-5.7A5.708,5.708,0,0,1-58.562,0Z" transform="translate(64.267)" fill="none" stroke="#3a7cf8" stroke-linecap="round" stroke-linejoin="round" stroke-width="2.5"/>
        </g>
        <g id="g1367" transform="translate(39.932 45.636)">
          <path id="path1369" d="M-58.562,0a5.708,5.708,0,0,1,5.7,5.7,5.708,5.708,0,0,1-5.7,5.7,5.708,5.708,0,0,1-5.7-5.7A5.708,5.708,0,0,1-58.562,0Z" transform="translate(64.267)" fill="none" stroke="#3a7cf8" stroke-linecap="round" stroke-linejoin="round" stroke-width="2.5"/>
        </g>
      </g>
    </g>
  </g>
</svg>
