<svg xmlns="http://www.w3.org/2000/svg" width="147.704" height="29.045" viewBox="0 0 147.704 29.045">
  <g id="lo" transform="translate(0 -0.047)">
    <path id="Path_11714" data-name="Path 11714" d="M84.019,20.375c-.24,1.1-2.39.855-3.232.746a.385.385,0,0,1-.237-.127.376.376,0,0,1-.094-.249l.061-16.561a.461.461,0,0,1,.143-.4.475.475,0,0,1,.416-.118l2.777.121a.346.346,0,0,1,.235.1.337.337,0,0,1,.1.236V9.17q0,.419.363.194c6.445-4,12.522,3.761,8.356,9.476q-2.587,3.543-7.736,1.923a.524.524,0,0,1-.23-.135.514.514,0,0,1-.132-.229.374.374,0,0,0-.05-.147.378.378,0,0,0-.105-.115.386.386,0,0,0-.3-.065.371.371,0,0,0-.219.1A.363.363,0,0,0,84.019,20.375Zm3.25-2.184a3.319,3.319,0,0,0,2.278-1.063,3.235,3.235,0,0,0,.855-2.34,3.083,3.083,0,0,0-.8-2.385,3.147,3.147,0,0,0-1.056-.751,3.184,3.184,0,0,0-2.546,0,3.147,3.147,0,0,0-1.056.751,3.1,3.1,0,0,0-.658,1.109,3.069,3.069,0,0,0-.147,1.276,3.235,3.235,0,0,0,.855,2.34A3.319,3.319,0,0,0,87.269,18.191Z" transform="translate(11.666 0.523)" fill="#8ba9e0"/>
    <path id="Path_11715" data-name="Path 11715" d="M33.406,19.09l.08,4.617a.3.3,0,0,1-.084.265.309.309,0,0,1-.267.087H30.45a.358.358,0,0,1-.3-.1.348.348,0,0,1-.1-.3V8.182q0-.406.412-.37l2.47.2a.343.343,0,0,1,.2.074.336.336,0,0,1,.116.175l.1.3q.141.449.522.17c5.862-4.259,12.166,3.719,7.834,9.2q-2.826,3.573-8.067,1.019Q33.4,18.829,33.406,19.09Zm3.107-2a3.159,3.159,0,0,0,2.162-1.029,3.08,3.08,0,0,0,.8-2.235,2.944,2.944,0,0,0-.8-2.262,3.006,3.006,0,0,0-1.014-.7,3.04,3.04,0,0,0-2.425.025,3,3,0,0,0-1,.724,2.942,2.942,0,0,0-.75,2.277,3.081,3.081,0,0,0,.844,2.218,3.161,3.161,0,0,0,2.183.984Z" transform="translate(4.357 1.084)" fill="#8ba9e0"/>
    <path id="Path_11716" data-name="Path 11716" d="M47.874,9.167A5.717,5.717,0,0,1,51.714,7.7a.241.241,0,0,1,.112.007.239.239,0,0,1,.1.056.234.234,0,0,1,.069.2v2.888a.351.351,0,0,1-.032.148.356.356,0,0,1-.091.121.375.375,0,0,1-.289.089c-5.2-.655-3.693,6.091-3.754,9.027a.277.277,0,0,1-.014.125.28.28,0,0,1-.069.106.284.284,0,0,1-.109.066.287.287,0,0,1-.127.012H44.39a.345.345,0,0,1-.29-.1.336.336,0,0,1-.083-.132A.332.332,0,0,1,44,20.165V8.263a.264.264,0,0,1,.011-.123.267.267,0,0,1,.065-.1.274.274,0,0,1,.23-.076h2.808a.4.4,0,0,1,.278.111.392.392,0,0,1,.121.271l.025.692Q47.56,9.446,47.874,9.167Z" transform="translate(6.38 1.109)" fill="#8ba9e0"/>
    <path id="Path_11717" data-name="Path 11717" d="M65.913,14.223a7.081,7.081,0,0,1-14.12,0,7.081,7.081,0,0,1,14.12,0Zm-6.981,3.421a3.34,3.34,0,0,0,2.273-1.111,3.256,3.256,0,0,0,.818-2.37,3.1,3.1,0,0,0-.84-2.392,3.162,3.162,0,0,0-1.073-.742,3.2,3.2,0,0,0-2.564.039,3.159,3.159,0,0,0-1.05.774,3.1,3.1,0,0,0-.764,2.416,3.259,3.259,0,0,0,.893,2.345A3.342,3.342,0,0,0,58.932,17.644Z" transform="translate(7.51 1.109)" fill="#8ba9e0"/>
    <path id="Path_11718" data-name="Path 11718" d="M69.978,19.821v4.9a.334.334,0,0,1-.014.155.338.338,0,0,1-.083.132.342.342,0,0,1-.134.082.347.347,0,0,1-.157.014H66.525a.393.393,0,0,1-.148-.029.388.388,0,0,1-.126-.083.382.382,0,0,1-.084-.124.378.378,0,0,1-.029-.146V8.265a.266.266,0,0,1,.077-.227.271.271,0,0,1,.106-.065.275.275,0,0,1,.124-.011h2.918a.641.641,0,0,1,.426.157c.1.095.1.2,0,.261a.325.325,0,0,0-.117.144.32.32,0,0,0-.018.184q.055.394.393.176c6.476-4.283,13.216,3.834,8.412,9.664q-3.042,3.694-8.295,1.153Q69.978,19.609,69.978,19.821Zm3.084-2.166a3.334,3.334,0,0,0,2.276-1.088,3.251,3.251,0,0,0,.839-2.356,3.085,3.085,0,0,0-.807-2.4,3.148,3.148,0,0,0-1.063-.753,3.188,3.188,0,0,0-2.559.013,3.148,3.148,0,0,0-1.055.764,3.085,3.085,0,0,0-.782,2.406,3.252,3.252,0,0,0,.864,2.348A3.334,3.334,0,0,0,73.062,17.656Z" transform="translate(9.589 1.107)" fill="#8ba9e0"/>
    <path id="Path_11719" data-name="Path 11719" d="M101.947,19.542c-5.9,4.149-12.116-3.622-5.395-6.151a18.6,18.6,0,0,1,5.148-.425q.4,0,.283-.382c-.854-2.845-4.338-1.984-6.248-.868a.3.3,0,0,1-.349-.031.3.3,0,0,1-.075-.1l-1.02-2.1a.265.265,0,0,1-.03-.227.268.268,0,0,1,.06-.1.272.272,0,0,1,.1-.066c4.252-2.317,11.2-2.263,11.336,4.083q.067,3.44.21,6.892a.387.387,0,0,1-.01.177.371.371,0,0,1-.09.153.378.378,0,0,1-.151.1.385.385,0,0,1-.179.017l-2.575.03a.477.477,0,0,1-.281-.09.47.47,0,0,1-.174-.237l-.177-.546Q102.231,19.341,101.947,19.542Zm-.381-4.313-4.024.425a.24.24,0,0,0-.159.088.235.235,0,0,0-.05.173l.061.613a1.741,1.741,0,0,0,.235.69,1.766,1.766,0,0,0,.5.537,2.158,2.158,0,0,0,1.491.381l.449-.049a2.144,2.144,0,0,0,1.373-.686,1.734,1.734,0,0,0,.452-1.353l-.062-.607a.24.24,0,0,0-.265-.212Z" transform="translate(13.577 1.109)" fill="#8ba9e0"/>
    <path id="Path_11720" data-name="Path 11720" d="M115.805,13.873a3.25,3.25,0,0,1,1.177.968,3.187,3.187,0,0,1-.31,4.189c-2.39,2.463-7.447,1.887-10.267.552a.367.367,0,0,1-.136-.08.359.359,0,0,1-.089-.13.342.342,0,0,1-.023-.155.348.348,0,0,1,.046-.15l.848-2.026a.365.365,0,0,1,.089-.13.377.377,0,0,1,.134-.083.4.4,0,0,1,.158-.023.388.388,0,0,1,.152.042,8.814,8.814,0,0,0,5.629.831.842.842,0,0,0,.484-.281.823.823,0,0,0,.021-1.046.845.845,0,0,0-.474-.3c-2.544-.552-8.462-1.019-6.691-5.417,1.48-3.688,7.323-3.343,10.26-1.935a.375.375,0,0,1,.187.2.367.367,0,0,1,0,.272l-.816,1.972a.36.36,0,0,1-.081.119.364.364,0,0,1-.123.078.371.371,0,0,1-.144.024.379.379,0,0,1-.144-.033,7.928,7.928,0,0,0-5.051-.552.861.861,0,0,0-.444.249.839.839,0,0,0-.139.953.853.853,0,0,0,.356.363C112,13.2,113.993,12.945,115.805,13.873Z" transform="translate(15.392 1.111)" fill="#8ba9e0"/>
    <path id="Path_11721" data-name="Path 11721" d="M121.191,15.377a.184.184,0,0,0-.1.026.182.182,0,0,0-.09.167.182.182,0,0,0,.033.093q2.617,3.579,6.544.995a.3.3,0,0,1,.108-.056.307.307,0,0,1,.237.03.313.313,0,0,1,.092.081l1.413,1.553q.515.564-.142.952c-4.749,2.833-11.342,1.474-12.073-4.453-1.045-8.438,13.664-10.24,13.5.042a.583.583,0,0,1-.182.41.6.6,0,0,1-.42.167Zm-.086-2.433,5.861.03a.062.062,0,0,0,.041-.016.064.064,0,0,0,.021-.039v-.055a1.935,1.935,0,0,0-.847-1.538,3.507,3.507,0,0,0-2.066-.646h-.135c-1.614-.008-2.929.952-2.937,2.148v.055a.061.061,0,0,0,.018.043A.06.06,0,0,0,121.105,12.945Z" transform="translate(16.988 1.117)" fill="#8ba9e0"/>
    <path id="Path_11722" data-name="Path 11722" d="M16.239.737q8.5,5.472,11.232,7.589c1.567,1.213.94,13.189.928,15.579-.018,3.446-1.131,5.181-4.7,5.181q-10.083-.006-20.166.006c-2.261,0-3.521-2.057-3.527-4.259Q-.006,17.4.006,9.976q0-.952,1.395-1.935Q9.634,2.242,12.774.434A3.16,3.16,0,0,1,16.239.737ZM25.6,10.152,15.127,3.212a1.543,1.543,0,0,0-1.641-.036Q9.161,5.742,4.756,8.781c-1.468,1.013-2.3,1.353-2.31,3.015q-.025,6.655.043,13.31c.012,1.141.737,1.7,1.892,1.7q10.107.006,19.791-.006a1.645,1.645,0,0,0,.622-.121,1.626,1.626,0,0,0,.528-.347A1.595,1.595,0,0,0,25.8,25.2q.012-7.28.006-14.578a.52.52,0,0,0-.039-.263A.528.528,0,0,0,25.6,10.152Z" transform="translate(0 0)" fill="#8ba9e0"/>
    <path id="Path_11723" data-name="Path 11723" d="M16.765,12.053l-.922-.734a.488.488,0,0,1-.132-.16.48.48,0,0,1-.052-.2.465.465,0,0,1,.038-.2.47.47,0,0,1,.121-.166L16.936,9.6a.4.4,0,0,1,.134-.1.4.4,0,0,1,.327,0,.4.4,0,0,1,.134.1l3.4,3.07a1.229,1.229,0,0,1-.136,1.934,1.255,1.255,0,0,1-.708.213l-14.08-.006a.5.5,0,0,1-.267-.077.487.487,0,0,1-.182-.208,1.886,1.886,0,0,1-.037-1.65.529.529,0,0,1,.208-.246.539.539,0,0,1,.314-.081H16.586a.284.284,0,0,0,.164-.05.279.279,0,0,0,.1-.135.275.275,0,0,0,.005-.17A.279.279,0,0,0,16.765,12.053Z" transform="translate(0.776 1.366)" fill="#8ba9e0"/>
    <path id="Path_11724" data-name="Path 11724" d="M9.947,17.889l.541.54a.327.327,0,0,1,.1.12.323.323,0,0,1-.007.305.328.328,0,0,1-.109.115l-.971.874a.558.558,0,0,1-.731.006Q7.163,18.477,5.658,17a.943.943,0,0,1-.27-.51c-.258-1.4.768-1.693,1.948-1.68q6.574.061,12.964.194a.814.814,0,0,1,.308.068.8.8,0,0,1,.258.18.789.789,0,0,1,.22.571q-.037,1.413-.977,1.438-4.762.127-9.96.14Q9.449,17.4,9.947,17.889Z" transform="translate(0.775 2.141)" fill="#8ba9e0"/>
  </g>
</svg>
