<svg xmlns="http://www.w3.org/2000/svg" width="12" height="12" viewBox="0 0 12 12">
  <g id="Group_59288" data-name="Group 59288" transform="translate(-6 -6)">
    <path id="Line_1" data-name="Line 1" d="M0,11a1,1,0,0,1-.707-.293,1,1,0,0,1,0-1.414l10-10a1,1,0,0,1,1.414,0,1,1,0,0,1,0,1.414l-10,10A1,1,0,0,1,0,11Z" transform="translate(7 7)" fill="#3b7bf8"/>
    <path id="Path_11301" data-name="Path 11301" d="M17,18a1,1,0,0,1-1-1V8H7A1,1,0,0,1,7,6H17a1,1,0,0,1,1,1V17A1,1,0,0,1,17,18Z" transform="translate(0 0)" fill="#3b7bf8"/>
  </g>
</svg>
