<svg xmlns="http://www.w3.org/2000/svg" width="161.249" height="27.852" viewBox="0 0 161.249 27.852">
  <g id="Group_59247" data-name="Group 59247" transform="translate(-5614 -2471.001)">
    <g id="Group_59246" data-name="Group 59246" transform="translate(5614 2471.001)">
      <g id="Group_69302" data-name="Group 69302" transform="translate(0 0)">
        <g id="Group_69301" data-name="Group 69301">
          <g id="Group_69300" data-name="Group 69300">
            <g id="Group_69295" data-name="Group 69295">
              <g id="Group_69294" data-name="Group 69294">
                <g id="de">
                  <path id="Path_36738" data-name="Path 36738" d="M3.651,0H32.006Q33.7,4.215,35.248,8.633a3.111,3.111,0,0,1-.4,3.38q-1.764,2.08-4.439.712a5.317,5.317,0,0,1-.935-.8.206.206,0,0,0-.306.01c-1.7,1.633-3.635,1.9-5.412-.013a.2.2,0,0,0-.34.014,3.4,3.4,0,0,1-5.4,0,.23.23,0,0,0-.344-.007,3.439,3.439,0,0,1-5.013.5,2.54,2.54,0,0,1-.409-.447.168.168,0,0,0-.282-.021q-2.8,2.692-5.577-.052a.142.142,0,0,0-.234,0A3.506,3.506,0,0,1,0,10.62V9.668Zm.6,1.389c-1.011,2.52-1.895,5.126-2.833,7.65-1.231,3.311,3.6,4.356,4.3,1.145q.932-4.305,1.963-8.857.058-.265-.21-.261l-2.809.041a.449.449,0,0,0-.409.282Zm2.74,7.86c-.808,3.235,4.229,4.136,4.518.546q.361-4.511.622-8.409a.226.226,0,0,0-.254-.275l-2.53-.034a.6.6,0,0,0-.592.478Q8,5.181,6.99,9.249Zm5.659.12a2.326,2.326,0,1,0,4.607.289q.01-4.284,0-8.41a.146.146,0,0,0-.148-.145H13.488a.215.215,0,0,0-.241.223Q12.917,5.566,12.649,9.369Zm10.194,1.248A1.7,1.7,0,0,0,23,9.761Q22.737,5.47,22.371,1.3a.191.191,0,0,0-.213-.2l-3.579,0a.172.172,0,0,0-.193.193q-.031,4.528.014,8.368a2.289,2.289,0,0,0,4.443.952Zm5.635.337a1.633,1.633,0,0,0,.23-1.317q-.894-4.091-1.87-8.162a.486.486,0,0,0-.474-.371H23.73a.185.185,0,0,0-.21.22q.22,3.855.591,8.355c.2,2.469,2.892,3.455,4.367,1.275Zm3.5,1.176a2.221,2.221,0,0,0,2.372-2.806q-1.533-3.906-2.929-7.863a.526.526,0,0,0-.5-.353L28.183,1.1q-.289,0-.223.279.963,4.325,1.922,8.7A2.434,2.434,0,0,0,31.978,12.13Z" fill="#8ba9e0"/>
                  <path id="Path_36739" data-name="Path 36739" d="M38.153,54.222H8.293L8.241,41.243a.479.479,0,0,1,.4-.512.639.639,0,0,1,.5.086.476.476,0,0,1,.237.413V52.946a.172.172,0,0,0,.172.172H36.936A.115.115,0,0,0,37.053,53c0-3.832-.006-4.154,0-7.842a1.092,1.092,0,0,1,.443-.894.353.353,0,0,1,.189-.076q.464-.055.464.416Z" transform="translate(-5.405 -26.716)" fill="#8ba9e0"/>
                  <path id="Path_36740" data-name="Path 36740" d="M21.814,51.7a.6.6,0,0,1-.6.6l-6.127-.011a.6.6,0,0,1-.6-.6l.019-10.3a.6.6,0,0,1,.6-.6l6.127.011a.6.6,0,0,1,.6.6Zm-1.005-9.781a.127.127,0,0,0-.127-.127H15.648a.127.127,0,0,0-.127.127V51.2a.127.127,0,0,0,.127.127h5.033a.127.127,0,0,0,.127-.127Z" transform="translate(-9.504 -26.763)" fill="#8ba9e0"/>
                  <path id="Path_36741" data-name="Path 36741" d="M56.55,48.084a.55.55,0,0,1-.55.55H39.93a.55.55,0,0,1-.55-.55V41.525a.55.55,0,0,1,.55-.55H56a.55.55,0,0,1,.55.55Zm-.929-5.955a.186.186,0,0,0-.186-.186H40.508a.186.186,0,0,0-.186.186v5.384a.186.186,0,0,0,.186.186H55.436a.186.186,0,0,0,.186-.186Z" transform="translate(-25.841 -26.888)" fill="#8ba9e0"/>
                  <circle id="Ellipse_888" data-name="Ellipse 888" cx="0.75" cy="0.75" r="0.75" transform="translate(9.283 19.027)" fill="#8ba9e0"/>
                </g>
                <path id="Path_36742" data-name="Path 36742" d="M-.717.47H.415V3.04L-.717,2.957Z" transform="translate(3.565 13.444)" fill="#8ba9e0"/>
                <path id="Path_36743" data-name="Path 36743" d="M-.953.428H.154V6.41L-.953,6.353Z" transform="translate(32.6 13.472)" fill="#8ba9e0"/>
                <g id="Group_69296" data-name="Group 69296" transform="translate(25.614 16.331)">
                  <path id="Path_36744" data-name="Path 36744" d="M0,0,2.063,2.063" transform="translate(0.344 0.344)" fill="#8ba9e0"/>
                  <path id="Path_36746" data-name="Path 36746" d="M0,0,.688.688" transform="translate(0 2.063)" fill="#8ba9e0"/>
                  <path id="Path_36745" data-name="Path 36745" d="M0,0,.688.688" transform="translate(2.063)" fill="#8ba9e0"/>
                </g>
              </g>
            </g>
          </g>
        </g>
        <path id="Union_2" data-name="Union 2" d="M20124.705,4058.7a8.936,8.936,0,0,1,.137-2.066c.68-3.676,1.682-7.443,1.887-11.17a3.81,3.81,0,0,0-.934-2.718.242.242,0,0,1,.141-.387,16.028,16.028,0,0,1,4.117-.268.237.237,0,0,1,.238.208l.184.879c.055.255.178.3.373.123,2.342-2.079,5.66-1.827,5.877,1.873.168,2.784.07,5.956-2.271,7.734a4.613,4.613,0,0,1-4.35.524.256.256,0,0,1-.166-.112.264.264,0,0,1-.031-.2l.129-.746a.116.116,0,0,1,.053-.095.114.114,0,0,1,.107-.007c1.2.3,1.957-.851,2.26-1.842a11.6,11.6,0,0,0,.459-5.4.909.909,0,0,0-1.035-.737,3.343,3.343,0,0,0-1.049.358.608.608,0,0,0-.322.474q-.513,3.783-1.424,7.987a26.41,26.41,0,0,0-.557,4.97.566.566,0,0,1-.434.579,10.229,10.229,0,0,1-2.924.462h-.021a.4.4,0,0,1-.443-.429Zm35.217-8.673q.586-3.044,1.219-5.912c.047-.2-.035-.293-.24-.273l-.8.083c-.2.021-.295-.067-.295-.264l0-1.16a.258.258,0,0,1,.295-.3h1.193a.2.2,0,0,0,.156-.052.181.181,0,0,0,.055-.154l.16-3.107a.276.276,0,0,1,.191-.261,9.234,9.234,0,0,1,3.4-.533.266.266,0,0,1,.217.078.252.252,0,0,1,.082.218,11.963,11.963,0,0,1-.385,3.561c-.047.166.018.249.188.249h2.094c.158,0,.213.075.172.225l-.3,1.1a.243.243,0,0,1-.266.193l-1.912-.087a.277.277,0,0,0-.205.051.27.27,0,0,0-.1.182q-.656,3.044-1.1,6.105a4.413,4.413,0,0,0,.008,1.388.233.233,0,0,0,.1.156.245.245,0,0,0,.184.037,4.9,4.9,0,0,0,1.418-.533.271.271,0,0,1,.346.04c.418.368.428.716.033,1.045a6.654,6.654,0,0,1-3.85,1.572C20160.49,4053.69,20159.4,4052.733,20159.922,4050.031Zm-45.994,3.471c-1.35-.4-1.152-2.673-.941-3.675q.463-2.21,1.055-4.525a2.284,2.284,0,0,0-.73-2.4.31.31,0,0,1-.086-.312.3.3,0,0,1,.24-.216,18.847,18.847,0,0,1,4.3-.261.228.228,0,0,1,.236.213,5.552,5.552,0,0,1-.061,2.016q-.609,2.65-1.336,6.023-.211.981.789.879l.457-.048a1.16,1.16,0,0,0,1.094-.947,54.4,54.4,0,0,0,1.367-7.489.545.545,0,0,1,.166-.383.537.537,0,0,1,.391-.149l2.879-.173c.34-.021.477.135.416.47l-1.527,8.353q-.132.694.566.6a2.767,2.767,0,0,0,.99-.438.207.207,0,0,1,.266.04q.609.686-.035,1.089a3.276,3.276,0,0,0-.285.213,5,5,0,0,1-3.885,1.243,1.664,1.664,0,0,1-1.443-1.227c-.064-.24-.189-.28-.379-.123a5.324,5.324,0,0,1-3.361,1.4A4.016,4.016,0,0,1,20113.928,4053.5Zm30.451-.9c-.059-.195-.174-.23-.336-.107a4.564,4.564,0,0,1-1.91,1.045c-4.172.722-4.3-3.364-3.9-6.243a7.916,7.916,0,0,1,1.252-3.333q2.074-3.064,6.121-1.423a.192.192,0,0,0,.3-.154.474.474,0,0,1,.1-.176.489.489,0,0,1,.426-.173,10.251,10.251,0,0,1,2.754.614.226.226,0,0,1,.154.308,31.7,31.7,0,0,0-1.377,8.168c-.012.353.145.455.461.308a7.629,7.629,0,0,1,1.07-.407c.768-.229,1.422-1.163,2.23-1.553a.429.429,0,0,1,.531.082,7.291,7.291,0,0,1,1.746,2.583.325.325,0,0,0,.18.216.335.335,0,0,0,.281,0,.8.8,0,0,0,.295-.166.938.938,0,0,0,.285-.946c-.684-2.512-3.639-3.747-4.131-6.244-.367-1.865,1.477-2.886,3.1-2.974,1.076-.058,2.711-.157,3.539.635,1.414,1.352.2,2.871-.777,4a.232.232,0,0,0-.074.172.24.24,0,0,0,.086.167c1.277,1.309,2.244,3.47.746,5.079a4.638,4.638,0,0,1-3.006,1.5c-1.705.173-3.432.091-4.605-1.263a.225.225,0,0,0-.338-.043,11.353,11.353,0,0,1-1.549.935,4.556,4.556,0,0,1-1.895.446A1.647,1.647,0,0,1,20144.379,4052.607Zm.066-9.107c-.092.005-.162.008-.211.008a1.356,1.356,0,0,0-1.25.824,10.611,10.611,0,0,0-.943,6.44.824.824,0,0,0,.676.679,1.8,1.8,0,0,0,1.354-.347.41.41,0,0,0,.178-.315,28.482,28.482,0,0,1,1.045-6.315c.189-.65-.062-.976-.748-.976Zm9.939.205-.031.032a.454.454,0,0,0-.047.639l1.082,1.246a.448.448,0,0,0,.635.043l.035-.028c.746-.647.988-1.591.539-2.11l-.045-.055a1.043,1.043,0,0,0-.807-.329,2.159,2.159,0,0,0-1.361.562Zm-56.631,9.951a3.277,3.277,0,0,1-2.166-.821c-1.33-1.25-1.348-2.839-1.32-4.567a5.739,5.739,0,0,1,.5-2.442,6.234,6.234,0,0,1,7.031-3.739,2.632,2.632,0,0,1,2.336,2.954c-.244,2.663-3.088,3.837-5.354,4.153q-1.271.177-.6,1.266c.127.2.23.364.314.5a1.733,1.733,0,0,0,1.975.741,5.5,5.5,0,0,0,2.172-1.088.151.151,0,0,1,.121-.041.159.159,0,0,1,.113.064l.412.56a.205.205,0,0,1,.055.157.212.212,0,0,1-.076.146,6.945,6.945,0,0,1-5.115,2.164c-.133,0-.271,0-.408-.009Zm1.92-10.306c-1.314.556-1.687,3.367-1.736,4.527a.133.133,0,0,0,.053.121.147.147,0,0,0,.131.026,3.284,3.284,0,0,0,2.6-4.085.755.755,0,0,0-1.045-.588Zm91,10.313a3.479,3.479,0,0,1-3.533-2.962c-.441-2.567-.143-5.036,1.854-7a6.1,6.1,0,0,1,4.836-1.66,3.035,3.035,0,0,1,3.064,2.133v1.27c-.707,2.591-3.518,3.53-5.953,3.881a.22.22,0,0,0-.168.083.232.232,0,0,0-.045.182c.223,2.969,3,2.4,4.639,1.041a.155.155,0,0,1,.131-.05.157.157,0,0,1,.119.078l.443.56a.167.167,0,0,1,.049.125.182.182,0,0,1-.059.119,6.934,6.934,0,0,1-5.225,2.207c-.051,0-.1,0-.154,0Zm1.514-10.215c-1.109.849-1.43,3.061-1.512,4.324-.012.231.092.31.314.236a3.307,3.307,0,0,0,2.471-4.051.8.8,0,0,0-1.273-.509Zm-107.295,10.092a4.16,4.16,0,0,1-2.664-1.647c-.918-1.148,1.3-3.14,2.139-3.711a.565.565,0,0,1,.424-.128.571.571,0,0,1,.387.215,7.986,7.986,0,0,1,1.789,2.848q.39,1.108,1.334.406a1.148,1.148,0,0,0,.2-.2,2.114,2.114,0,0,0,.352-2.035,10.857,10.857,0,0,0-1.73-3.369,24.664,24.664,0,0,1-2.324-3.865q-2.795-5.742,3.74-7.06h1.35q3.267.485,3.375,2.737c.1,1.909-1.652,3.6-3.062,4.669a.191.191,0,0,0-.1.146.206.206,0,0,0,.051.17c1.945,2.677,3.846,6.089,1.389,8.874a6.593,6.593,0,0,1-5.107,2.065,10.462,10.462,0,0,1-1.543-.117Zm2.848-16.032a1.11,1.11,0,0,0-.162,1.273l.938,1.772a.6.6,0,0,0,.99.244c.766-.524,3.08-2.434,1.754-3.486a2.665,2.665,0,0,0-1.666-.558,2.5,2.5,0,0,0-1.854.755Zm81.848,15.958a2.881,2.881,0,0,1-2.025-1.881,8.932,8.932,0,0,1,.541-6.818,5.036,5.036,0,0,1,4.635-2.792,11.726,11.726,0,0,0,1.914-.146c1.92-.308,2.289,2.106,2.227,3.49-.014.206.086.294.295.268l1.58-.205a.5.5,0,0,0,.482-.709,4.887,4.887,0,0,0-.934-1.87.257.257,0,0,1-.041-.25.251.251,0,0,1,.189-.161,19.279,19.279,0,0,1,4.244-.311.236.236,0,0,1,.176.059.246.246,0,0,1,.082.166l.2,1.187c.043.236.139.261.291.075a3.78,3.78,0,0,1,2.65-1.617q1.251-.051,1.393,1.33c.055.521.162,1.175-.273,1.566a5.7,5.7,0,0,1-1.857,1.123.3.3,0,0,1-.389-.13l-.674-1.021a.307.307,0,0,0-.385-.134,1.529,1.529,0,0,0-1.057.954,38.356,38.356,0,0,0-1.184,7.226.436.436,0,0,1-.451.461l-2.957.2a.349.349,0,0,1-.426-.394,32.571,32.571,0,0,1,1.1-6.492.073.073,0,0,0-.021-.068.078.078,0,0,0-.07-.02l-1.932.423a.162.162,0,0,0-.135.13c-.654,3.2-2.373,6.548-5.74,6.549a5.937,5.937,0,0,1-1.455-.191Zm3.158-10.16a2,2,0,0,0-.85.926,9.518,9.518,0,0,0-.832,5.991,1.293,1.293,0,0,0,1.48,1.222c1.5-.11,2.578-2.875,2.881-4.093.043-.169-.021-.247-.193-.237-2.213.13-3.07-1.577-2.217-3.566.1-.225.092-.337-.014-.337a.622.622,0,0,0-.258.095Zm-66.242,10.286c-1.559-.225-1.633-1.96-1.4-3.215q.568-3.155,1.27-6.326a.175.175,0,0,0-.043-.158.172.172,0,0,0-.152-.059l-.881.106c-.2.023-.3-.065-.3-.269V4042.5a.249.249,0,0,1,.074-.217.255.255,0,0,1,.219-.071h1.2a.2.2,0,0,0,.164-.055.2.2,0,0,0,.064-.162l.182-3.08a.319.319,0,0,1,.236-.308,10.161,10.161,0,0,1,3.254-.518.327.327,0,0,1,.361.317,10.6,10.6,0,0,1-.346,3.537c-.039.179.031.269.215.269l2,0c.217,0,.295.1.232.312l-.262.891a.4.4,0,0,1-.432.312l-1.824-.075a.248.248,0,0,0-.277.213q-.642,2.959-1.078,5.971a5.981,5.981,0,0,0-.035,1.483.322.322,0,0,0,.148.238.307.307,0,0,0,.275.023l1.424-.564a.2.2,0,0,1,.25.087l.275.477a.253.253,0,0,1-.059.347,6.07,6.07,0,0,1-4.027,1.725,5.165,5.165,0,0,1-.725-.051Z" transform="translate(-20035.641 -4031.284)" fill="#8ba9e0"/>
      </g>
    </g>
  </g>
</svg>
