<svg xmlns="http://www.w3.org/2000/svg" width="167.629" height="36.612" viewBox="0 0 167.629 36.612">
  <g id="Group_59010" data-name="Group 59010" transform="translate(-115 -73.388)">
    <g id="Spericorn_Logo_Black" transform="translate(111.353 4.859)">
      <g id="Group_58912" data-name="Group 58912" transform="translate(3.647 68.529)">
        <path id="Path_11289" data-name="Path 11289" d="M90.608,75.569a3.374,3.374,0,0,0,2.469-1.026A3.423,3.423,0,0,0,94.1,72.028a3.5,3.5,0,0,0-3.5-3.5,3.452,3.452,0,0,0-2.52,1.026,3.386,3.386,0,0,0-1.023,2.469,3.5,3.5,0,0,0,3.466,3.542A.555.555,0,0,0,90.608,75.569Z" transform="translate(-3.555 -68.529)" fill="#fff"/>
        <path id="Path_11290" data-name="Path 11290" d="M168.517,78.932a9.042,9.042,0,0,0-6.841-2.753,9.17,9.17,0,0,0-6.952,2.778,10.047,10.047,0,0,0-2.609,7.176V98.2h5.439V87.08c0-4.938,2.327-5.506,4.079-5.506a3.455,3.455,0,0,1,2.948,1.27,6.474,6.474,0,0,1,1.088,4.062V98.2h5.437V86.084A10.031,10.031,0,0,0,168.517,78.932Z" transform="translate(-3.485 -68.521)" fill="#fff"/>
        <path id="Path_11291" data-name="Path 11291" d="M65.494,78.448a10.747,10.747,0,0,0-6.78-2.268h-.1a10.652,10.652,0,0,0-6.685,2.268,12.02,12.02,0,0,0-1.174,1A10.684,10.684,0,0,0,47.43,87.3a10.871,10.871,0,0,0,3.318,8.018A11.094,11.094,0,0,0,58.8,98.587a10.786,10.786,0,0,0,7.884-3.276,11.082,11.082,0,0,0,2.634-4.076l.246-.677H63.5l-.15.208a6.844,6.844,0,0,1-.617.732,5.17,5.17,0,0,1-3.841,1.7,5.658,5.658,0,0,1-4.215-1.685A5.53,5.53,0,0,1,53.5,89.833H69.7l.077-.414A11.145,11.145,0,0,0,69.99,87.3a10.682,10.682,0,0,0-3.318-7.852A11.924,11.924,0,0,0,65.494,78.448ZM54.749,82.505l.417.309a5.681,5.681,0,0,1,7.119.025l.334-.38-.248.457c.127.114.253.232.376.36a5.85,5.85,0,0,1,1.127,1.658H53.542a5.8,5.8,0,0,1,1.127-1.656c.123-.129.248-.246.36-.346l-.279-.428Z" transform="translate(-3.599 -68.521)" fill="#fff"/>
        <path id="Path_11292" data-name="Path 11292" d="M10.655,80.853a4,4,0,0,1,2.458-.629,4.21,4.21,0,0,1,2.635.738A2.786,2.786,0,0,1,16.8,82.924l.123.939H22.8l-.131-1.2a8.133,8.133,0,0,0-3.032-5.776,10.233,10.233,0,0,0-6.474-2A9.864,9.864,0,0,0,6.55,77.008,7.069,7.069,0,0,0,4,82.6a5.633,5.633,0,0,0,1.086,3.472l.065.09a3.886,3.886,0,0,0,.37.45,9.141,9.141,0,0,0,3.4,2.161,21.367,21.367,0,0,0,2.954.873l.2.065a14.318,14.318,0,0,1,3.559,1.2c.747.4.849.815.849,1.157a1.644,1.644,0,0,1-.684,1.389,4,4,0,0,1-2.457.63,4.187,4.187,0,0,1-2.635-.741,2.778,2.778,0,0,1-1.054-1.96l-.122-.938H3.647l.131,1.194a8.157,8.157,0,0,0,3.032,5.78,10.247,10.247,0,0,0,6.474,2,9.851,9.851,0,0,0,6.6-2.12,7.059,7.059,0,0,0,2.552-5.589,5.659,5.659,0,0,0-1.086-3.478l-.444.33.371-.431a3.844,3.844,0,0,0-.36-.437,9.224,9.224,0,0,0-3.4-2.161,23.665,23.665,0,0,0-2.9-.87l-.242-.072a14.077,14.077,0,0,1-3.561-1.2c-.746-.4-.849-.813-.849-1.162a1.647,1.647,0,0,1,.686-1.387Z" transform="translate(-3.647 -68.522)" fill="#fff"/>
        <path id="Path_11293" data-name="Path 11293" d="M87.932,93.657c.077,1.222.707,4.1,4.878,4.537l.559.059V76.523H87.931Z" transform="translate(-3.555 -68.521)" fill="#fff"/>
        <path id="Path_11294" data-name="Path 11294" d="M77.735,78.09V76.57H72.3V93.787c.052.957.558,4.1,4.9,4.412l.54.041V88.3c0-2.465.484-4.265,1.441-5.346.926-1.05,2.469-1.582,4.586-1.582h1.681V76.134H83.16A7.767,7.767,0,0,0,77.735,78.09Z" transform="translate(-3.573 -68.521)" fill="#fff"/>
        <path id="Path_11295" data-name="Path 11295" d="M151.018,76.134h-2.286a7.769,7.769,0,0,0-5.42,1.956V76.57h-5.438V93.787c.05.957.556,4.1,4.894,4.412l.54.041V88.3c0-2.465.485-4.265,1.441-5.346.926-1.05,2.469-1.582,4.587-1.582h1.679Z" transform="translate(-3.5 -68.521)" fill="#fff"/>
        <path id="Path_11296" data-name="Path 11296" d="M35.315,76.3a10.756,10.756,0,0,0-7.809,3.171,10.333,10.333,0,0,0-3.184,6.8h-.039l.008,13.966a6.306,6.306,0,0,0,5.133,4.784l.6.112V96.723a10.948,10.948,0,0,0,16.109-9.436,10.719,10.719,0,0,0-3.164-7.767,10.407,10.407,0,0,0-7.654-3.22ZM30.027,86.734a4.9,4.9,0,0,1,1.522-3.363,5.147,5.147,0,0,1,3.763-1.525,4.765,4.765,0,0,1,3.6,1.564,5.337,5.337,0,0,1,1.506,3.87A5,5,0,0,1,38.9,90.925a4.723,4.723,0,0,1-3.511,1.549,5.17,5.17,0,0,1-3.853-1.538,5.093,5.093,0,0,1-1.511-3.494Z" transform="translate(-3.624 -68.521)" fill="#fff"/>
        <path id="Path_11297" data-name="Path 11297" d="M105.922,92.866a5.772,5.772,0,0,1-4.835-5.71,5.833,5.833,0,0,1,5.722-5.793,38.211,38.211,0,0,1,3.863-.077l.512.007V76.3h-4.3a10.857,10.857,0,0,0-.208,21.712h4.507V93.062l-.512,0A20.44,20.44,0,0,1,105.922,92.866Z" transform="translate(-3.547 -68.521)" fill="#fff"/>
        <g id="Group_58911" data-name="Group 58911" transform="translate(108.66 7.654)">
          <path id="Path_11298" data-name="Path 11298" d="M123.569,76.177a11.1,11.1,0,0,0-8.054,3.271,10.688,10.688,0,0,0-3.326,7.85,10.875,10.875,0,0,0,3.326,8.02,11.227,11.227,0,1,0,15.943-15.812A10.736,10.736,0,0,0,123.569,76.177Zm-4.114,7.059a5.625,5.625,0,0,1,4.114-1.666,5.225,5.225,0,0,1,3.942,1.708,5.847,5.847,0,0,1,1.65,4.232,5.472,5.472,0,0,1-1.666,3.985,5.17,5.17,0,0,1-3.841,1.7,5.752,5.752,0,0,1-5.9-5.6V87.3a5.4,5.4,0,0,1,1.7-4.062Z" transform="translate(-112.188 -76.175)" fill="#3b7bf8"/>
          <path id="Path_11299" data-name="Path 11299" d="M127.556,87.374a4.1,4.1,0,1,1-4.1-4.1h0a4.1,4.1,0,0,1,4.1,4.1Z" transform="translate(-112.181 -76.168)" fill="#3b7bf8"/>
        </g>
      </g>
    </g>
  </g>
</svg>
