<svg xmlns="http://www.w3.org/2000/svg" width="26.969" height="25.042" viewBox="0 0 26.969 25.042">
  <path id="Icon_ionic-ios-star" data-name="Icon ionic-ios-star" d="M28.2,12.044H19.34l-2.691-8.03a.975.975,0,0,0-1.83,0l-2.691,8.03H3.213a.966.966,0,0,0-.963.963.708.708,0,0,0,.018.163.925.925,0,0,0,.4.68l7.278,5.129L7.156,27.1a.966.966,0,0,0,.331,1.084.932.932,0,0,0,.542.235,1.18,1.18,0,0,0,.6-.217l7.1-5.063,7.1,5.063a1.128,1.128,0,0,0,.6.217.865.865,0,0,0,.536-.235.954.954,0,0,0,.331-1.084l-2.793-8.121L28.731,13.8l.175-.15a1.01,1.01,0,0,0,.313-.644A1.019,1.019,0,0,0,28.2,12.044Z" transform="translate(-2.25 -3.375)" fill="#ffce00"/>
</svg>
