<svg xmlns="http://www.w3.org/2000/svg" width="227.324" height="55.779" viewBox="0 0 227.324 55.779">
  <g id="Group_59111" data-name="Group 59111" transform="translate(-1.504 -0.4)">
    <path id="Path_11670" data-name="Path 11670" d="M318.583,359.96l-10.289,7.468q-.119.086.023.05l11.71-3.037" transform="translate(-279.474 -327.604)" fill="none" stroke="#008451" stroke-width="2"/>
    <path id="Path_11671" data-name="Path 11671" d="M39.109,32.356,28.82,39.824q-.119.086.023.05l11.71-3.037,4.941,15.216q.022.066-.035.025L28.742,39.931a.055.055,0,0,0-.071,0L11.936,52.076q-.067.048-.042-.03L18.3,32.384a.032.032,0,0,0-.012-.036L1.522,20.159q-.039-.029.01-.029l20.68.016a.067.067,0,0,0,.069-.05L28.683.431q.02-.062.041,0l6.389,19.685a.05.05,0,0,0,.047.034H55.835q.075,0,.014.044Z" fill="#00b67a"/>
    <path id="Union_2" data-name="Union 2" d="M92.932,36.033V7.875a.028.028,0,0,1,.028-.028h4.215a.045.045,0,0,1,.05.051v2.579q0,.312.15.04a5.66,5.66,0,0,1,1.712-1.94,8.341,8.341,0,0,1,4.821-1.292,8.915,8.915,0,0,1,8.882,6.954c1.009,3.684.652,8.28-1.651,11.476a7.91,7.91,0,0,1-5.128,3.154A9.765,9.765,0,0,1,99.7,27.8a6.666,6.666,0,0,1-2.119-1.984c-.079-.114-.118-.1-.118.037v10.18Zm9.746-25.149a5.01,5.01,0,0,0-3.512,1.5,7.423,7.423,0,0,0-1.754,4.271c-.322,3.02.222,6.475,3.116,8.111a5.337,5.337,0,0,0,3.016.616,5.519,5.519,0,0,0,4.953-4.564c.594-2.62.348-5.927-1.426-8.046a5.039,5.039,0,0,0-4.037-1.9Q102.858,10.875,102.678,10.885ZM64.805,28.839c-2.708-.421-5.154-1.764-6.2-4.372a7.556,7.556,0,0,1-.482-2.554c0-.031.014-.048.047-.048H62.65a.053.053,0,0,1,.058.053,3.385,3.385,0,0,0,1.716,2.827,5.874,5.874,0,0,0,2.413.653,10.045,10.045,0,0,0,2.616-.2,3.058,3.058,0,0,0,2.352-1.627,2.17,2.17,0,0,0-.465-2.225,7.389,7.389,0,0,0-3.676-1.537q-1.617-.333-3.13-.691a15.723,15.723,0,0,1-2.54-.824,6.531,6.531,0,0,1-1.516-.912,5.133,5.133,0,0,1-1.871-4.52,4.678,4.678,0,0,1,1.515-3.307,9.387,9.387,0,0,1,5.883-2.221,13.75,13.75,0,0,1,4.552.365,7.255,7.255,0,0,1,3.812,2.355A6.589,6.589,0,0,1,75.8,13.571c0,.035-.011.053-.047.053H71.136a.069.069,0,0,1-.075-.061,2.789,2.789,0,0,0-1.726-2.243,7.176,7.176,0,0,0-4.2-.246c-1.077.237-2.1.856-1.994,2.1a1.66,1.66,0,0,0,.554,1.152,4.674,4.674,0,0,0,1.567.9,17.523,17.523,0,0,0,2.326.625,35.688,35.688,0,0,1,4.737,1.183,5.56,5.56,0,0,1,4.067,4.352,6.091,6.091,0,0,1-.619,3.794,7.5,7.5,0,0,1-4.577,3.306,14.426,14.426,0,0,1-3.969.552A15.7,15.7,0,0,1,64.805,28.839Zm75.734-.284a9.4,9.4,0,0,1-5.328-3.852,10.667,10.667,0,0,1-1.487-3.679,13.441,13.441,0,0,1,.741-8.079A9.123,9.123,0,0,1,139.6,8.037a12.163,12.163,0,0,1,6.8-.492,9.418,9.418,0,0,1,1.661.5,9.192,9.192,0,0,1,5.129,4.931,10.835,10.835,0,0,1,.584,1.671,13.575,13.575,0,0,1-.529,8.519,9.173,9.173,0,0,1-5.618,5.221,11.407,11.407,0,0,1-3.763.609A12.485,12.485,0,0,1,140.54,28.554Zm2.334-17.608a5.68,5.68,0,0,0-4.437,4.109,10.227,10.227,0,0,0-.38,4.424,7.38,7.38,0,0,0,1.921,4.341A5.069,5.069,0,0,0,143.6,25.4a6.482,6.482,0,0,0,1.5-.128,5.5,5.5,0,0,0,3.73-3.116,9.776,9.776,0,0,0,.76-5.383,7.239,7.239,0,0,0-1.991-4.4,5.193,5.193,0,0,0-3.735-1.494A7.069,7.069,0,0,0,142.873,10.947ZM41.255,28.55c-3.672-1.108-4.377-4.608-4.374-7.984q0-6.357,0-12.693a.023.023,0,0,1,.026-.026h4.478c.022,0,.032.012.032.034q0,6.172,0,12.464a6.128,6.128,0,0,0,.942,3.83,3.369,3.369,0,0,0,2.118,1.164,6.184,6.184,0,0,0,2.179-.024c2.785-.545,3.766-2.792,3.77-5.386q.007-5.947,0-12.038a.026.026,0,0,1,.025-.026h4.455a.047.047,0,0,1,.054.053V28.4a.034.034,0,0,1-.033.034H50.549a.036.036,0,0,1-.036-.037V25.6a.045.045,0,0,0-.043-.045.059.059,0,0,0-.054.032,6.032,6.032,0,0,1-1.664,1.929,7.141,7.141,0,0,1-3.815,1.462c-.187.01-.376.014-.567.014A10.964,10.964,0,0,1,41.255,28.55Zm43.781.01c-1.943-.241-3.331-1.146-3.693-3.136a11.706,11.706,0,0,1-.207-2.069q-.005-5.85,0-12.014a.054.054,0,0,0-.061-.061H77.752a.047.047,0,0,1-.053-.052V7.88a.032.032,0,0,1,.032-.032h3.324a.038.038,0,0,0,.039-.038V1.7a.032.032,0,0,1,.031-.032h4.469a.032.032,0,0,1,.033.032V7.809a.038.038,0,0,0,.038.038h4.022c.022,0,.031.011.031.032V11.2a.035.035,0,0,1-.035.036H85.651a.025.025,0,0,0-.024.025V22.219q0,.586.055,1.178a1.575,1.575,0,0,0,1.345,1.611,8.364,8.364,0,0,0,2.69-.074c.029,0,.043.007.043.036v3.4a.059.059,0,0,1-.057.065q-1.538.184-2.107.213-.386.019-.767.019A14.6,14.6,0,0,1,85.036,28.56Zm78.784.084c-2.108-.116-4.081-.719-4.562-3.05a11.425,11.425,0,0,1-.244-2.31q0-5.932,0-11.978a.025.025,0,0,0-.024-.025h-3.379a.031.031,0,0,1-.031-.032V7.882a.035.035,0,0,1,.034-.035h3.318a.034.034,0,0,0,.039-.038v-6.1a.042.042,0,0,1,.041-.041h4.473a.02.02,0,0,1,.021.021V7.821a.026.026,0,0,0,.026.026h4.036a.029.029,0,0,1,.032.032v3.308a.043.043,0,0,1-.048.049h-3.984a.055.055,0,0,0-.063.062V22.219a8.144,8.144,0,0,0,.119,1.544,1.607,1.607,0,0,0,1.732,1.3,9.213,9.213,0,0,0,2.238-.132c.031-.006.045.006.045.038v3.414a.04.04,0,0,1-.038.044q-.96.119-1.788.194-.516.046-1.1.046Q164.285,28.669,163.821,28.643Zm-47-.211a.032.032,0,0,1-.032-.031V7.879a.032.032,0,0,1,.032-.031H121.3a.032.032,0,0,1,.032.031V28.4a.032.032,0,0,1-.032.031Zm-107.78,0a.034.034,0,0,1-.033-.034V4.325a.034.034,0,0,0-.034-.033H.034A.033.033,0,0,1,0,4.258V.035A.033.033,0,0,1,.034,0H23a.034.034,0,0,1,.034.034V4.257A.034.034,0,0,1,23,4.291H14.025a.034.034,0,0,0-.034.033V28.4a.034.034,0,0,1-.033.034Zm116.682,0a.35.35,0,0,1-.349-.35V.351a.35.35,0,0,1,.349-.35h3.835a.35.35,0,0,1,.35.35V28.082a.35.35,0,0,1-.35.35ZM22.056,28.409a.021.021,0,0,1-.021-.022V7.877a.03.03,0,0,1,.03-.03h4.21a.029.029,0,0,1,.032.033v3.853a.137.137,0,0,0,0,.027.084.084,0,0,0,.014.031c.036.05.062.046.078-.014a6.757,6.757,0,0,1,3.983-4.095,6.962,6.962,0,0,1,3.7-.281.036.036,0,0,1,.03.036v4.306c0,.027-.013.038-.039.032a10.345,10.345,0,0,0-1.5-.184,5.067,5.067,0,0,0-4.512,1.987,8.133,8.133,0,0,0-1.495,5.054q0,4.869,0,9.751c0,.017-.008.025-.023.025Zm95.1-24.117a.36.36,0,0,1-.36-.36V.361a.36.36,0,0,1,.36-.36h3.814a.36.36,0,0,1,.36.36V3.932a.36.36,0,0,1-.36.36Z" transform="translate(61.19 20.145)" fill="#fff"/>
    <path id="Path_11681" data-name="Path 11681" d="M318.583,359.96l1.444,4.481-11.71,3.037q-.142.036-.023-.05Z" transform="translate(-279.474 -327.604)" fill="#005128"/>
  </g>
</svg>
