<svg xmlns="http://www.w3.org/2000/svg" width="96.753" height="35.762" viewBox="0 0 96.753 35.762">
  <g id="Group_59438" data-name="Group 59438" transform="translate(-164 -316)">
    <g id="_2say_copy" data-name="2say copy" transform="translate(152.065 -45.895)">
      <path id="Subtraction_1" data-name="Subtraction 1" d="M-3153.021-11535.057h0a6.145,6.145,0,0,1-1.6-.208,6.006,6.006,0,0,1-1.552-.671,3.725,3.725,0,0,1-1.389-1.565,4.491,4.491,0,0,1-.438-2.094,4.341,4.341,0,0,1,.569-2.034,4.037,4.037,0,0,1,.678-.869,4.186,4.186,0,0,1,.954-.689,9.591,9.591,0,0,1,2.082-.8,16.193,16.193,0,0,1,2.191-.4,26.131,26.131,0,0,1,3.257-.2h.214a.306.306,0,0,0,.23-.062.344.344,0,0,0,.052-.256,2.656,2.656,0,0,0-2.8-2.687c-.079,0-.158-.006-.236-.006a4.672,4.672,0,0,0-3.336,1.49,1.775,1.775,0,0,0-.273.3,1.157,1.157,0,0,1-1.02.562,2.559,2.559,0,0,1-.747-.133,1.644,1.644,0,0,1-1.23-1.485,2.441,2.441,0,0,1,.167-1.222,3.11,3.11,0,0,1,.707-1.011,5.1,5.1,0,0,1,1.56-1.035,8.132,8.132,0,0,1,1.793-.522,13.886,13.886,0,0,1,2.543-.241,13,13,0,0,1,2.714.287,6.255,6.255,0,0,1,1.8.672,5.2,5.2,0,0,1,1.381,1.132,5.072,5.072,0,0,1,.9,1.535,5.989,5.989,0,0,1,.365,1.882c.075,1.957.062,3.943.05,5.864-.007,1.121-.014,2.278,0,3.42a.707.707,0,0,1-.156.467.919.919,0,0,1-.409.262,3.445,3.445,0,0,1-1.112.188,2.581,2.581,0,0,1-1.474-.425,2.42,2.42,0,0,1-.959-1.449c-.02-.077-.041-.155-.066-.247h0c-.02-.072-.044-.162-.071-.262a6.2,6.2,0,0,1-1.363,1.362,5.522,5.522,0,0,1-1.7.815A8.373,8.373,0,0,1-3153.021-11535.057Zm4.8-7.121c-.12,0-.277.009-.445.02a.3.3,0,0,1-.109.009,14.942,14.942,0,0,0-2.36.219,4.349,4.349,0,0,0-2,.792,1.754,1.754,0,0,0-.659,1.556,1.737,1.737,0,0,0,.959,1.37,3.059,3.059,0,0,0,1.376.29,5.956,5.956,0,0,0,.619-.035,3.358,3.358,0,0,0,3.08-3.354c.009-.444.013-.668-.093-.776C-3147.921-11542.153-3148.023-11542.178-3148.221-11542.178Z" transform="translate(3212.823 11927.087)" fill="#8ba9e0"/>
      <path id="Path_8652" data-name="Path 8652" d="M663.147,535.269a1.8,1.8,0,0,1-1.576-1.285q-2.46-5.767-4.966-11.517c-.282-.656-.036-.911.437-1.148a3.932,3.932,0,0,1,2.369-.319,2.147,2.147,0,0,1,1.667,1.458c.556,1.367,1.066,2.752,1.594,4.136.647,1.695,1.294,3.4,1.941,5.093.128-.073.128-.2.164-.3q1.421-4.182,2.824-8.355a3.685,3.685,0,0,1,.866-1.494,2.458,2.458,0,0,1,2.2-.538,3,3,0,0,1,1.376.474.582.582,0,0,1,.255.82q-3.417,8.87-6.833,17.749a4.07,4.07,0,0,1-1.011,1.6,2.705,2.705,0,0,1-2.414.492,3.215,3.215,0,0,1-.92-.255c-.529-.246-.647-.528-.41-1.057.756-1.722,1.522-3.453,2.278-5.175C663.047,535.524,663.093,535.415,663.147,535.269Z" transform="translate(-585.825 -144.555)" fill="#8ba9e0"/>
      <path id="Path_8653" data-name="Path 8653" d="M18.51,534.506H14.273a7.207,7.207,0,0,1-.884-.064,1.414,1.414,0,0,1-1.367-1.4A22.782,22.782,0,0,1,12,529.258a3.747,3.747,0,0,1,2.3-3.189,13.994,13.994,0,0,1,3.417-1.048,11.577,11.577,0,0,0,2.269-.6,1.1,1.1,0,0,0,.793-1,1.19,1.19,0,0,0-.711-1.184,4.159,4.159,0,0,0-2.961-.21,8.412,8.412,0,0,0-3.244,1.758c-.4.346-.674.328-.975-.118a2.523,2.523,0,0,1,.519-3.581,5.956,5.956,0,0,1,2.761-1.1,10.885,10.885,0,0,1,4.966.173,4.956,4.956,0,0,1,3.216,2.506,4.1,4.1,0,0,1-2.159,5.822,21.268,21.268,0,0,1-3.745,1.02,7.18,7.18,0,0,0-1.43.428,1.181,1.181,0,0,0-.784,1.23,4.278,4.278,0,0,1,0,.683c-.027.3.1.346.364.346,2.086-.018,4.164-.018,6.25-.018a3.084,3.084,0,0,1,1.075.164,1.3,1.3,0,0,1,.884,1.184,2.262,2.262,0,0,1-.036.82,1.587,1.587,0,0,1-1.749,1.166c-1.512.009-3.007,0-4.51,0Z" transform="translate(0 -142.589)" fill="#8ba9e0"/>
      <path id="Path_8654" data-name="Path 8654" d="M183.2,534.882a11.174,11.174,0,0,1-4.464-.8,5.344,5.344,0,0,1-.8-.456,2.554,2.554,0,0,1-.893-3.4,1.889,1.889,0,0,1,.173-.292.528.528,0,0,1,.911-.082,6.229,6.229,0,0,0,2.888,1.676,6.6,6.6,0,0,0,3.736.036,1.343,1.343,0,0,0,.893-.738,1.154,1.154,0,0,0-.656-1.576,13.479,13.479,0,0,0-2.6-.692,15.748,15.748,0,0,1-2.861-.884c-3.225-1.449-2.9-5.531-.729-7.189a6.8,6.8,0,0,1,3.49-1.33,11.14,11.14,0,0,1,5.011.528,4.168,4.168,0,0,1,1.676,1.084,2.517,2.517,0,0,1-.018,3.307c-.282.346-.528.328-.847,0a5.887,5.887,0,0,0-5.521-1.813,2.266,2.266,0,0,0-.793.3,1.212,1.212,0,0,0-.61,1.139,1.061,1.061,0,0,0,.711.957,8.094,8.094,0,0,0,1.831.528,20.163,20.163,0,0,1,3.508.957,4.237,4.237,0,0,1,2.369,2.05,4.394,4.394,0,0,1-1.722,5.567A8.326,8.326,0,0,1,183.2,534.882Z" transform="translate(-149.78 -142.865)" fill="#8ba9e0"/>
      <path id="Path_8655" data-name="Path 8655" d="M339.342,489.889c0-1.221-.009-2.433.009-3.654,0-.237-.064-.319-.3-.3a4.574,4.574,0,0,1-1.057-.055,1.359,1.359,0,0,1-1.23-1.33,3.118,3.118,0,0,1,0-.583,1.387,1.387,0,0,1,1.248-1.394,3.449,3.449,0,0,1,.683-.046c.647,0,.647,0,.647-.665v-1.33a1.825,1.825,0,0,1,2.05-2.032h.31a1.719,1.719,0,0,1,1.941,1.9c.018.6.018,1.2,0,1.813-.009.246.046.328.31.328.784-.018,1.567-.009,2.36-.009a2.782,2.782,0,0,1,.674.073,1.335,1.335,0,0,1,.556.246c.656.547.547,1.285.446,2a1.265,1.265,0,0,1-1.166,1.039,23.884,23.884,0,0,1-2.8.064c-.538.018-.465-.082-.465.474v5.9a3.873,3.873,0,0,0,.137,1.212,1.407,1.407,0,0,0,1.4,1.084,2.381,2.381,0,0,0,2.023-.948c.255-.31.41-.31.656.018a2.538,2.538,0,0,1-.565,3.526,4.186,4.186,0,0,1-2.05.774,6.52,6.52,0,0,1-3.262-.328,3.9,3.9,0,0,1-2.414-3.116,8.224,8.224,0,0,1-.146-1.768C339.351,491.83,339.342,490.864,339.342,489.889Z" transform="translate(-295.221 -105.981)" fill="#8ba9e0"/>
      <path id="Path_8656" data-name="Path 8656" d="M878.2,374.359V362.2a.292.292,0,0,1,.2-.292.283.283,0,0,1,.31.073l.191.191q8.405,8.419,16.819,16.837c.046.046.1.091.146.146.246.264.21.456-.128.592-.875.374-1.758.729-2.642,1.093-.7.292-1.4.592-2.1.866a.594.594,0,0,0-.383.383q-.847,2.077-1.722,4.146c-.2.483-.255.51-.729.31q-2.077-.861-4.146-1.731a.687.687,0,0,0-.583.009q-2.323.97-4.647,1.932c-.428.182-.583.073-.583-.392Q878.21,380.368,878.2,374.359Z" transform="translate(-787.335)" fill="#8ba9e0"/>
      <path id="Path_8658" data-name="Path 8658" d="M884.864,383.2c.519,1.248,1.03,2.487,1.549,3.736q2.419,5.863,4.856,11.717a.794.794,0,0,1,.009.674c-.51,1.194-1,2.387-1.494,3.59-.146-.018-.137-.146-.173-.228q-2.364-5.7-4.72-11.4a.985.985,0,0,1-.091-.392v-7.581c0-.036.009-.064.009-.1C884.827,383.209,884.846,383.209,884.864,383.2Z" transform="translate(-793.337 -19.364)" fill="#e3edff"/>
      <path id="Path_8659" data-name="Path 8659" d="M897.6,395.557q-3.157-7.64-6.3-15.225c.118-.036.164.082.228.146q4.291,4.278,8.565,8.574c.109.109.191.191.109.374q-1.271,3.034-2.524,6.068C897.678,395.5,897.651,395.511,897.6,395.557Z" transform="translate(-799.245 -16.751)" fill="#e3edff"/>
      <path id="Path_8660" data-name="Path 8660" d="M974.356,490.351c-1.339.556-2.706,1.1-4.064,1.695a1.351,1.351,0,0,1-1.184-.009c-1.175-.519-2.369-.993-3.553-1.485-.146-.055-.264-.082-.173-.3.875-2.1,1.74-4.191,2.6-6.25Z" transform="translate(-866.548 -110.98)" fill="#e3edff"/>
      <path id="Path_8661" data-name="Path 8661" d="M885.046,488.1c.5,1.2.993,2.4,1.494,3.6.966,2.323,1.922,4.647,2.9,6.97.1.228.064.319-.173.41-1.348.547-2.679,1.1-4.027,1.658-.073.027-.146.055-.237.082v-12.7C885.009,488.109,885.027,488.109,885.046,488.1Z" transform="translate(-793.519 -114.707)" fill="#e3edff"/>
      <path id="Path_8662" data-name="Path 8662" d="M949.634,563.046c-.027.073-.055.137-.082.2-.51,1.23-1.039,2.469-1.531,3.708-.091.228-.182.246-.392.155-1.23-.519-2.46-1.039-3.708-1.54-.237-.091-.246-.182-.155-.392.519-1.23,1.039-2.46,1.54-3.7.091-.228.173-.255.383-.164,1.239.528,2.487,1.039,3.736,1.558C949.506,562.918,949.643,562.909,949.634,563.046Z" transform="translate(-846.882 -181.206)" fill="#e0ebff"/>
    </g>
  </g>
</svg>
