<svg xmlns="http://www.w3.org/2000/svg" xmlns:xlink="http://www.w3.org/1999/xlink" width="89.455" height="89.455" viewBox="0 0 89.455 89.455">
  <defs>
    <clipPath id="clip-path">
      <path id="path297" d="M0-682.665H89.455v89.455H0Z" transform="translate(0 682.665)" fill="#fff"/>
    </clipPath>
  </defs>
  <g id="g291" transform="translate(0 682.665)">
    <g id="g293" transform="translate(0 -682.665)">
      <g id="g295" clip-path="url(#clip-path)">
        <g id="g301" transform="translate(3.494 3.494)">
          <path id="path303" d="M-216.661-509.1a38.622,38.622,0,0,1-32.672-38.158,38.612,38.612,0,0,1,38.612-38.612,38.62,38.62,0,0,1,38.26,33.371" transform="translate(249.333 585.867)" fill="none" stroke="#465886" stroke-linecap="round" stroke-linejoin="round" stroke-width="5"/>
        </g>
        <g id="g305" transform="translate(29.178 16.074)">
          <path id="path307" d="M-85.737,0V26.033l-12.929,13.1" transform="translate(98.666)" fill="none" stroke="#465886" stroke-linecap="round" stroke-linejoin="round" stroke-width="5"/>
        </g>
        <g id="g309" transform="translate(46.11 45.776)">
          <path id="path311" d="M-264.265-157.571a20.1,20.1,0,0,1-19.758,16.423,20.092,20.092,0,0,1-20.092-20.092,20.092,20.092,0,0,1,20.092-20.092,20.111,20.111,0,0,1,5.416.739" transform="translate(304.115 181.333)" fill="none" stroke="#465886" stroke-linecap="round" stroke-width="5"/>
        </g>
        <g id="g313" transform="translate(59.214 54.337)">
          <path id="path315" d="M-159.889,0l-15.269,15.113a2.621,2.621,0,0,1-3.7-.009L-184,9.959" transform="translate(184)" fill="none" stroke="#465886" stroke-linecap="round" stroke-linejoin="round" stroke-width="5"/>
        </g>
      </g>
    </g>
  </g>
</svg>
