<svg xmlns="http://www.w3.org/2000/svg" width="81.974" height="75.638" viewBox="0 0 81.974 75.638">
  <g id="Group_59335" data-name="Group 59335" transform="translate(-650 -923)">
    <g id="Group_59277" data-name="Group 59277" transform="translate(8473.688 -90)">
      <path id="Path_11956" data-name="Path 11956" d="M7.106-11.22V0H4.76V-8.568L2.329-7,1.258-8.755,4.964-11.22ZM17.9,0H10.625V-1.989l2.4-2.431A20.056,20.056,0,0,0,14.8-6.426a2.5,2.5,0,0,0,.5-1.487,1.328,1.328,0,0,0-.417-1.114A1.891,1.891,0,0,0,13.7-9.35a16.609,16.609,0,0,0-2.482.2l-.408.051-.119-1.819a11.723,11.723,0,0,1,3.451-.51q3.57,0,3.57,3.213a4.191,4.191,0,0,1-.544,2.176A10.8,10.8,0,0,1,15.2-3.808L13.243-2.04H17.9Zm2.643-10.03A3.89,3.89,0,0,1,23.8-11.424a3.89,3.89,0,0,1,3.255,1.394,7.277,7.277,0,0,1,1.1,4.48,7.042,7.042,0,0,1-1.088,4.42A3.964,3.964,0,0,1,23.8.2,3.964,3.964,0,0,1,20.536-1.13a7.042,7.042,0,0,1-1.088-4.42A7.277,7.277,0,0,1,20.545-10.03ZM25.738-5.6A6.893,6.893,0,0,0,25.3-8.542a1.546,1.546,0,0,0-1.487-.842,1.561,1.561,0,0,0-1.5.85,6.81,6.81,0,0,0-.451,2.941,6.577,6.577,0,0,0,.459,2.924,1.578,1.578,0,0,0,1.5.833A1.541,1.541,0,0,0,25.3-2.669,6.83,6.83,0,0,0,25.738-5.6Zm4.326-4.429a3.89,3.89,0,0,1,3.255-1.394,3.89,3.89,0,0,1,3.256,1.394,7.277,7.277,0,0,1,1.1,4.48,7.042,7.042,0,0,1-1.088,4.42A3.964,3.964,0,0,1,33.32.2,3.964,3.964,0,0,1,30.056-1.13a7.042,7.042,0,0,1-1.088-4.42A7.277,7.277,0,0,1,30.065-10.03ZM35.258-5.6a6.893,6.893,0,0,0-.442-2.941,1.546,1.546,0,0,0-1.487-.842,1.561,1.561,0,0,0-1.5.85,6.81,6.81,0,0,0-.451,2.941,6.577,6.577,0,0,0,.459,2.924,1.578,1.578,0,0,0,1.5.833,1.541,1.541,0,0,0,1.479-.833A6.83,6.83,0,0,0,35.258-5.6ZM38.93-3.247v-2.04H41.8V-8.143h2.04v2.856H46.75v2.04H43.843v2.89H41.8v-2.89Z" transform="translate(-7806.946 1057)" fill="#fff"/>
    </g>
    <g id="Screenshot_2024-01-11_at_2.13.58_PM" data-name="Screenshot 2024-01-11 at 2.13.58 PM" transform="translate(509.688 863.17)">
      <path id="Union_3" data-name="Union 3" d="M25.187,75.638a.433.433,0,1,1,0-.867h31.6a.433.433,0,0,1,0,.867Zm-.261-2.458a.28.28,0,0,1-.014-.326q.618-1.033,1.339-2.219a.056.056,0,0,0,0-.062q-.7-1.134-1.382-2.228a.351.351,0,0,1,.161-.459,1.148,1.148,0,0,1,.634-.165q2.747-.009,5.434-.011,12.347-.008,25.16-.027a.053.053,0,0,1,.026.006.073.073,0,0,0,.043.01.771.771,0,0,1,.738.321.25.25,0,0,1,0,.273q-.7,1.164-1.349,2.233a.048.048,0,0,0,0,.051q.67,1.088,1.381,2.23a.269.269,0,0,1,.041.146c0,.284-.382.433-.615.457a5.315,5.315,0,0,1-.535.026l-30.029.04H25.8A1.017,1.017,0,0,1,24.926,73.18Zm-7.291-2.244a8.251,8.251,0,0,1-1.435-.289,15.647,15.647,0,0,1-4.041-1.873,9.409,9.409,0,0,1-.861-.634.013.013,0,0,1,0-.013.012.012,0,0,1,.009-.01,10.976,10.976,0,0,1,4.69-.627q.514.063,1.016.155a6.04,6.04,0,0,1,2.965,1.236,1.154,1.154,0,0,1,.493,1.049,1.308,1.308,0,0,1-.914.833,5.391,5.391,0,0,1-.761.166,4.273,4.273,0,0,1-.6.042A4.635,4.635,0,0,1,17.635,70.936Zm45.575-.242a2.955,2.955,0,0,1-.755-.216c-.492-.223-.911-.708-.622-1.28a3.674,3.674,0,0,1,2.111-1.453,12.881,12.881,0,0,1,2.455-.5,9.14,9.14,0,0,1,3.179.246c.443.109.887.219,1.317.361.023.007.025.019.006.035-.117.1-.237.194-.359.283a15.466,15.466,0,0,1-4.416,2.228,7.138,7.138,0,0,1-2.131.362A5.046,5.046,0,0,1,63.21,70.694ZM19.337,67.04a6.845,6.845,0,0,1-.941-1.829c-.007-.022,0-.036-.012-.061a2.554,2.554,0,0,1-.1-.327,7.216,7.216,0,0,1,.582-4.519.007.007,0,0,1,.006,0,.009.009,0,0,1,.008,0q.729,1.191,1.569,2.506a11.344,11.344,0,0,1,1.42,3.23c.165.626.428,2-.5,2.214a1.153,1.153,0,0,1-.254.028A2.551,2.551,0,0,1,19.337,67.04Zm41.423,1.013c-.742-.238-.642-1.325-.5-1.949a11.038,11.038,0,0,1,1.347-3.312q.578-.95,1.3-2.1.167-.266.327-.582a.019.019,0,0,1,.016-.01.018.018,0,0,1,.016.01,3.653,3.653,0,0,1,.219.511,7.941,7.941,0,0,1,.491,1.914,5.77,5.77,0,0,1-.117,2.194,6.637,6.637,0,0,1-.806,1.814c-.386.612-1.13,1.559-1.962,1.559A1.086,1.086,0,0,1,60.759,68.054Zm-35.57-1.66a.438.438,0,1,1,0-.876h31.6a.438.438,0,0,1,0,.876ZM11.207,64.272a6.492,6.492,0,0,1-2-.82,14.691,14.691,0,0,1-3.879-3.4.022.022,0,0,1,0-.021.021.021,0,0,1,.017-.013,10.118,10.118,0,0,1,4.318.458,10.929,10.929,0,0,1,2.354,1.205,4.814,4.814,0,0,1,1.061,1c.541.694.462,1.519-.535,1.676a2.531,2.531,0,0,1-.391.029A4.646,4.646,0,0,1,11.207,64.272Zm57.67-.586c-.429-.64.335-1.5.779-1.883a7.981,7.981,0,0,1,1.713-1.116c.239-.113.477-.226.716-.336a9.681,9.681,0,0,1,4.7-.662.021.021,0,0,1,.014.034,15.294,15.294,0,0,1-2.61,2.59,7.648,7.648,0,0,1-3.914,1.8c-.1.009-.2.015-.305.015A1.257,1.257,0,0,1,68.877,63.686ZM13.922,62.305A2.63,2.63,0,0,1,12.9,60.873a6.988,6.988,0,0,1-.4-2.032,6.727,6.727,0,0,1,1.5-4.25c.023-.031.041-.028.052.008q.474,1.405.93,2.835c.062.2.107.4.165.6a9.456,9.456,0,0,1,.361,2.331,3.525,3.525,0,0,1-.261,1.666.778.778,0,0,1-.715.465A1.239,1.239,0,0,1,13.922,62.305Zm52.882-.7a2.964,2.964,0,0,1-.159-.751,10.808,10.808,0,0,1,.632-4.173q.393-1.207.752-2.351a.014.014,0,0,1,.011-.01.013.013,0,0,1,.014.005,7.783,7.783,0,0,1,1.183,2.093q.059.159.113.329a5.491,5.491,0,0,1,.264,1.936,6.99,6.99,0,0,1-.385,1.955c-.217.625-.677,1.428-1.389,1.58a1.18,1.18,0,0,1-.248.028A.816.816,0,0,1,66.8,61.606Zm-60.6-5.134a7,7,0,0,1-1.822-1.305,13.7,13.7,0,0,1-2.4-3.174,8.552,8.552,0,0,1-.4-.781c-.009-.021,0-.029.02-.025a11.99,11.99,0,0,1,2.147.533,7.458,7.458,0,0,1,1.862.94,12.808,12.808,0,0,1,1.062.851A6.235,6.235,0,0,1,7.882,54.9c.275.452.6,1.216.184,1.642a.927.927,0,0,1-.688.253A2.892,2.892,0,0,1,6.207,56.471Zm67.69-.4a.931.931,0,0,1-.062-.514c0-.032.009-.063.015-.094a5.648,5.648,0,0,1,2.21-2.829,8.318,8.318,0,0,1,3.279-1.577q.522-.13,1.1-.229a.023.023,0,0,1,.025.034,14.7,14.7,0,0,1-2.3,3.492,6.786,6.786,0,0,1-2.9,2.041,2.015,2.015,0,0,1-.547.094h-.033A.871.871,0,0,1,73.9,56.069Zm-64.442-.56a1.759,1.759,0,0,1-1.032-1.56,6.742,6.742,0,0,1,0-2.092,6.308,6.308,0,0,1,2.317-3.745c.029-.023.045-.017.049.02q.13,1.462.247,3.009a9.749,9.749,0,0,1-.188,2.884c-.126.558-.446,1.522-1.144,1.522A.868.868,0,0,1,9.455,55.509Zm61.907-1.285a9.5,9.5,0,0,1-.321-3.71q.093-1.316.2-2.656,0-.051.043-.019A7.823,7.823,0,0,1,72.661,49.3,5.315,5.315,0,0,1,73.7,52.139a6.5,6.5,0,0,1-.1,1.768,2.523,2.523,0,0,1-.257.7,1.114,1.114,0,0,1-.918.647l-.057,0C71.828,55.258,71.52,54.691,71.363,54.224Zm-69-6.935A13.083,13.083,0,0,1,.11,42.646c-.039-.129-.074-.251-.106-.368-.011-.038,0-.049.039-.036a8.6,8.6,0,0,1,3.57,2.423,6.416,6.416,0,0,1,1.536,2.783,1.477,1.477,0,0,1,.026.515.751.751,0,0,1-.387.587.8.8,0,0,1-.349.075A3.53,3.53,0,0,1,2.363,47.29Zm74.779.869c-.775-.543.128-2.3.5-2.856a8.584,8.584,0,0,1,2.448-2.493,11.041,11.041,0,0,1,1.849-.95.024.024,0,0,1,.025,0,.026.026,0,0,1,.006.025,17.185,17.185,0,0,1-1.468,3.784,5.743,5.743,0,0,1-2.3,2.459,1.39,1.39,0,0,1-.611.16A.775.775,0,0,1,77.143,48.159ZM6.031,47.58a2.658,2.658,0,0,1-.291-1.858,5.948,5.948,0,0,1,.59-1.861,6.429,6.429,0,0,1,2.732-2.542.02.02,0,0,1,.02,0,.023.023,0,0,1,.009.018,23.971,23.971,0,0,1-.544,3.681c-.17.739-.877,2.892-1.807,2.974l-.039,0A.946.946,0,0,1,6.031,47.58Zm68.093-1.036a8.635,8.635,0,0,1-.611-1.565,16.458,16.458,0,0,1-.348-1.615q-.186-1.107-.293-2.312c0-.024.007-.031.029-.02a5.605,5.605,0,0,1,3.4,4.841,2,2,0,0,1-.465,1.557.714.714,0,0,1-.514.252C74.794,47.683,74.33,46.956,74.124,46.544Zm-71.1-6.162c-.735-.238-1.315-1.2-1.648-1.86a7.086,7.086,0,0,1-.4-.988A13.593,13.593,0,0,1,.3,33.684a.022.022,0,0,1,.011-.019.021.021,0,0,1,.022,0q.273.188.56.4a8.1,8.1,0,0,1,3.091,4.59A1.886,1.886,0,0,1,3.908,40.1a.766.766,0,0,1-.637.321A.786.786,0,0,1,3.029,40.382ZM5,40.066a1.784,1.784,0,0,1-.157-1.812,6.028,6.028,0,0,1,1.084-1.98,5.853,5.853,0,0,1,2.88-1.669c.024-.006.032,0,.025.026a25.128,25.128,0,0,1-1.469,3.792c-.261.5-1.1,1.872-1.867,1.872A.679.679,0,0,1,5,40.066Zm73.386-.041a.788.788,0,0,1-.517-.7,3.139,3.139,0,0,1,.114-1.148,8.2,8.2,0,0,1,3.575-4.866.02.02,0,0,1,.023,0,.021.021,0,0,1,.012.02,13.594,13.594,0,0,1-.663,3.911,6.936,6.936,0,0,1-.886,1.8c-.281.412-.8,1.041-1.374,1.041A.771.771,0,0,1,78.386,40.025Zm-3.068-.8a8.833,8.833,0,0,1-1.28-2.213q-.2-.466-.323-.822-.319-.892-.645-1.849a.027.027,0,0,1,.032-.034,6.084,6.084,0,0,1,2.777,1.537c.749.764,1.905,2.91,1.086,3.861a.671.671,0,0,1-.52.264A1.776,1.776,0,0,1,75.318,39.229ZM5.256,32.485a1.023,1.023,0,0,1-.083-.669,2.437,2.437,0,0,1,.258-.756A5.009,5.009,0,0,1,7.5,28.893a5.983,5.983,0,0,1,2.341-.614.017.017,0,0,1,.016.008.017.017,0,0,1,0,.017,21.207,21.207,0,0,1-1.99,3.134A5.691,5.691,0,0,1,6.53,32.667a1.646,1.646,0,0,1-.329.16.963.963,0,0,1-.326.062A.682.682,0,0,1,5.256,32.485Zm-1.838-.033a2.621,2.621,0,0,1-.882-1.274,5.582,5.582,0,0,1-.324-1.115,12.319,12.319,0,0,1-.006-4.242.015.015,0,0,1,.009-.012.016.016,0,0,1,.015,0,8.175,8.175,0,0,1,1.761,2.467A7.355,7.355,0,0,1,4.6,30.44a4.831,4.831,0,0,1,.023,1.224c-.06.471-.359.91-.793.91A.829.829,0,0,1,3.418,32.451Zm70.862-1A18.442,18.442,0,0,1,72,28.041c-.016-.029-.007-.042.025-.04a5.882,5.882,0,0,1,2.509.688,5.088,5.088,0,0,1,1.815,1.905,2.568,2.568,0,0,1,.373,1.1.865.865,0,0,1-.221.648.63.63,0,0,1-.5.229C75.381,32.57,74.6,31.805,74.28,31.451Zm3.065.234a2.478,2.478,0,0,1-.134-.878,7.419,7.419,0,0,1,1.649-4.52,8.741,8.741,0,0,1,.725-.813c.021-.021.033-.016.039.013a12.859,12.859,0,0,1,.1,3.752,6.361,6.361,0,0,1-.591,2.039,2.453,2.453,0,0,1-.495.7.846.846,0,0,1-.584.251A.748.748,0,0,1,77.345,31.685Zm-70.361-6.5a1.189,1.189,0,0,1,.111-.387A3.909,3.909,0,0,1,8.206,23.49a5.082,5.082,0,0,1,.644-.445,4.97,4.97,0,0,1,3.056-.506c.031,0,.037.017.017.041q-.678.84-1.352,1.566A6.559,6.559,0,0,1,8.012,26a1.519,1.519,0,0,1-.337.068q-.04,0-.078,0C7.113,26.077,6.937,25.617,6.984,25.183Zm66.286.307a8.078,8.078,0,0,1-2.057-1.635q-.672-.715-1.347-1.537a.025.025,0,0,1,0-.026.023.023,0,0,1,.021-.016,6.154,6.154,0,0,1,1.924.061A4.509,4.509,0,0,1,74.232,23.8a1.735,1.735,0,0,1,.569,1.517.584.584,0,0,1-.61.462A2.177,2.177,0,0,1,73.27,25.49ZM4.665,22.237a12.952,12.952,0,0,1,.692-3.279c.009-.024.021-.026.036,0a8.02,8.02,0,0,1,1,1.927,6.553,6.553,0,0,1,.3,3.23c0,.009,0,.018-.005.027s-.007.034-.01.052a2.229,2.229,0,0,1-.292.855.652.652,0,0,1-.581.35C4.651,25.4,4.608,22.964,4.665,22.237ZM75.555,24.9a2,2,0,0,1-.451-1.087,6.774,6.774,0,0,1,.824-4.46q.194-.346.427-.708c.02-.031.036-.029.049,0,.081.2.138.422.207.632.028.083.054.167.078.255a14.01,14.01,0,0,1,.416,2.13,6.563,6.563,0,0,1-.126,2.274,2.327,2.327,0,0,1-.323.758.836.836,0,0,1-.665.389A.61.61,0,0,1,75.555,24.9ZM9.847,19.5a1.614,1.614,0,0,1,.749-1.246,4.835,4.835,0,0,1,1.028-.616,4.6,4.6,0,0,1,3.212-.087.022.022,0,0,1,.014.016.019.019,0,0,1-.007.02,18.646,18.646,0,0,1-2.382,1.8,5.326,5.326,0,0,1-1.514.633,1.827,1.827,0,0,1-.405.049C10.2,20.065,9.862,19.941,9.847,19.5Zm61.313.289A6.05,6.05,0,0,1,68.345,18.5q-.694-.517-1.437-1.151a.016.016,0,0,1-.005-.015.018.018,0,0,1,.011-.012,4.658,4.658,0,0,1,2.979-.034c.755.283,2.105,1.046,2.02,2.006a.589.589,0,0,1-.651.5A.944.944,0,0,1,71.159,19.789ZM8.149,18.221A5.173,5.173,0,0,1,8.2,16.305a9.25,9.25,0,0,1,.619-1.86q.286-.636.6-1.243a.022.022,0,0,1,.019-.011.02.02,0,0,1,.018.012,8.241,8.241,0,0,1,.477,1.3,6.3,6.3,0,0,1-.066,3.473c-.125.436-.4.99-.832,1.112a.718.718,0,0,1-.194.028C8.4,19.118,8.216,18.627,8.149,18.221Zm64.741.61c-.8-.055-1.061-1.208-1.179-1.822a6.527,6.527,0,0,1,.541-4.1.018.018,0,0,1,.016-.011.017.017,0,0,1,.016.01,15.67,15.67,0,0,1,1.1,2.512,5.806,5.806,0,0,1,.259,2.146c-.026.411-.161,1.262-.715,1.262ZM13.505,14.564c-.126-.625.534-1.076,1.01-1.3a5.7,5.7,0,0,1,.707-.274,4.193,4.193,0,0,1,3.091.353.021.021,0,0,1,.014.02.026.026,0,0,1-.013.023,9.026,9.026,0,0,1-3.9,1.6l-.1,0C14,14.992,13.577,14.925,13.505,14.564Zm53.405.155a5.769,5.769,0,0,1-1.777-.574q-.857-.437-1.737-.963c-.022-.013-.022-.025,0-.037a4.252,4.252,0,0,1,2.917-.428,3.943,3.943,0,0,1,1.442.658,1.17,1.17,0,0,1,.444.617c.126.428-.146.69-.54.74a2.6,2.6,0,0,1-.326.02A2.785,2.785,0,0,1,66.91,14.719ZM12.334,13.656a1.668,1.668,0,0,1-.169-1.16,5.713,5.713,0,0,1,.439-1.562,10.06,10.06,0,0,1,1.445-2.354c.014-.017.024-.015.031.006a6.494,6.494,0,0,1,.2,2.778.571.571,0,0,1-.029.109,1.485,1.485,0,0,0-.029.177,6.976,6.976,0,0,1-.359,1.056,2.951,2.951,0,0,1-.558.885.793.793,0,0,1-.552.266A.533.533,0,0,1,12.334,13.656Zm55.155-2.2a6.192,6.192,0,0,1,.1-3.128c0-.01.007-.011.014,0a9.737,9.737,0,0,1,1.521,2.457,5.15,5.15,0,0,1,.442,1.95.881.881,0,0,1-.391.823.59.59,0,0,1-.248.057C68.158,13.609,67.615,11.953,67.488,11.453Zm-49.288-.6c-.791-.148-.686-.888-.126-1.229l.078-.045a3.614,3.614,0,0,1,1.448-.4,4,4,0,0,1,2.547.776c.032.021.031.039,0,.054q-.755.315-1.552.579a5.712,5.712,0,0,1-1.763.322A3.431,3.431,0,0,1,18.2,10.854ZM61.093,10.4q-.778-.247-1.562-.567c-.022-.009-.023-.02,0-.033a4.768,4.768,0,0,1,1.4-.7,3.831,3.831,0,0,1,2.158.07,2.132,2.132,0,0,1,.571.279.78.78,0,0,1,.369.822c-.085.25-.4.36-.643.4a3.436,3.436,0,0,1-.553.044A5.809,5.809,0,0,1,61.093,10.4ZM16.646,9.175a1.811,1.811,0,0,1,.026-.568,4.675,4.675,0,0,1,.76-1.793A10.9,10.9,0,0,1,18.97,5.057a.015.015,0,0,1,.016,0,.015.015,0,0,1,.01.012,6.2,6.2,0,0,1,.011,1.624A5.143,5.143,0,0,1,18.35,8.6a2.1,2.1,0,0,1-.961.976.724.724,0,0,1-.238.042A.484.484,0,0,1,16.646,9.175Zm47.785.217c-.94-.153-1.578-1.808-1.733-2.575a6.026,6.026,0,0,1-.059-1.924c0-.036.019-.041.045-.015l.515.516a5.81,5.81,0,0,1,1.823,3.219,1.039,1.039,0,0,1-.04.479.469.469,0,0,1-.46.308A.556.556,0,0,1,64.431,9.392ZM22.4,7.571c-.491-.22-.407-.656-.049-.924a1.482,1.482,0,0,1,.5-.243,3.563,3.563,0,0,1,1.479-.042,3.681,3.681,0,0,1,1.841,1.006.013.013,0,0,1,0,.014.014.014,0,0,1-.009.01q-.753.185-1.538.326a5.444,5.444,0,0,1-.953.089A3.165,3.165,0,0,1,22.4,7.571Zm34.4-.031q-.663-.127-1.305-.27a.025.025,0,0,1-.018-.017.024.024,0,0,1,.007-.023c.076-.069.15-.137.226-.2a3.349,3.349,0,0,1,3.112-.779,1.207,1.207,0,0,1,.6.36c.326.339.135.69-.257.832a3.781,3.781,0,0,1-1.29.21A5.751,5.751,0,0,1,56.806,7.54ZM21.386,5.655A3.683,3.683,0,0,1,22.1,4.193,8.475,8.475,0,0,1,23.933,2.55a.019.019,0,0,1,.021,0,.019.019,0,0,1,.011.018,4.878,4.878,0,0,1-1.2,3.269,1.492,1.492,0,0,1-.878.529.826.826,0,0,1-.089,0C21.383,6.37,21.3,6.012,21.386,5.655Zm36.7-1.181a5.3,5.3,0,0,1-.437-2.043.024.024,0,0,1,.013-.023.023.023,0,0,1,.025,0,10.137,10.137,0,0,1,1.5,1.238,3.522,3.522,0,0,1,1.084,2.084.4.4,0,0,1-.337.454.788.788,0,0,1-.112.008C59.062,6.193,58.369,5.089,58.086,4.474ZM28.143,5.584a2.67,2.67,0,0,1-1.384-.445c-.466-.364-.022-.748.332-.877a1.483,1.483,0,0,1,.506-.087,3.283,3.283,0,0,1,2.583,1.28c.015.018.012.029-.012.033a8.093,8.093,0,0,1-1.391.123Q28.457,5.611,28.143,5.584Zm23.315-.189a.019.019,0,0,1-.014-.012.019.019,0,0,1,0-.018A3.358,3.358,0,0,1,53.3,4.145c.554-.12,1.334-.194,1.715.33.352.485-.688.835-.979.9a4.953,4.953,0,0,1-1.142.122A12.45,12.45,0,0,1,51.458,5.395ZM32.906,4.159c-.464-.034-1.923-.312-1.936-.907-.009-.406.418-.482.737-.47a2.814,2.814,0,0,1,2.379,1.4.025.025,0,0,1,0,.025.024.024,0,0,1-.022.013Q33.471,4.2,32.906,4.159Zm14.66-.008a.026.026,0,0,1-.021-.013.025.025,0,0,1,0-.025,3.2,3.2,0,0,1,1.189-1.128c.383-.187,1.463-.491,1.813-.1.265.3-.021.62-.292.765a5.7,5.7,0,0,1-2.634.5ZM26.294,4c-.484-.273-.03-.991.212-1.316a4.776,4.776,0,0,1,1.206-1.127q.509-.338,1.035-.628c.029-.016.041-.008.038.025a4.124,4.124,0,0,1-1.567,2.831,1.22,1.22,0,0,1-.681.273A.492.492,0,0,1,26.294,4Zm28.067-.357a4.037,4.037,0,0,1-1.2-1.541A4.84,4.84,0,0,1,52.813.851c-.005-.037.008-.047.041-.029A7.768,7.768,0,0,1,54.8,2.189c.253.266.984,1.18.668,1.559a.5.5,0,0,1-.4.187A1.23,1.23,0,0,1,54.361,3.643ZM30.834,2.48c-.565-.428.494-1.341.819-1.563A7.523,7.523,0,0,1,33.3.066c.03-.011.041,0,.032.03a3.487,3.487,0,0,1-1.808,2.333,1.084,1.084,0,0,1-.452.123A.4.4,0,0,1,30.834,2.48Zm19.524-.036A2.708,2.708,0,0,1,49.3,1.815a3.675,3.675,0,0,1-1.05-1.8.01.01,0,0,1,0-.011.01.01,0,0,1,.011,0A7.3,7.3,0,0,1,49.889.8,2.586,2.586,0,0,1,50.9,1.908a.4.4,0,0,1-.4.555A.567.567,0,0,1,50.358,2.444ZM33.632,2.272A.229.229,0,0,1,33.6,1.9a.806.806,0,0,1,.213-.15,5.387,5.387,0,0,1,1.476-.41,11.008,11.008,0,0,1,2.787-.141q.945.074,2,.262c.039.006.04.017,0,.031s-.045.015-.068.022a41.242,41.242,0,0,1-4.339.81q-.406.054-.872.079c-.116.007-.243.012-.37.012A1.769,1.769,0,0,1,33.632,2.272Zm12.56.05a47.21,47.21,0,0,1-4.66-.762c-.038-.008-.038-.017,0-.026.077-.019.156-.035.236-.05a14.367,14.367,0,0,1,2.973-.28,9.64,9.64,0,0,1,2.427.376,3.273,3.273,0,0,1,.744.3.258.258,0,0,1,.152.27.11.11,0,0,1-.043.071.963.963,0,0,1-.49.136q-.247.018-.5.018A7.64,7.64,0,0,1,46.193,2.322Z" transform="translate(140.313 59.83)" fill="#596c8e"/>
    </g>
  </g>
</svg>
